<svg width="199" height="60" viewBox="0 0 199 60" fill="none" xmlns="http://www.w3.org/2000/svg">
<path d="M1.07371 47.9999V17.2764H13.1951C15.5154 17.2764 17.4956 17.6914 19.1358 18.5215C20.786 19.3416 22.0411 20.5068 22.9012 22.0169C23.7713 23.5171 24.2064 25.2823 24.2064 27.3125C24.2064 29.3528 23.7663 31.108 22.8862 32.5782C22.0061 34.0383 20.731 35.1584 19.0608 35.9385C17.4006 36.7186 15.3904 37.1087 13.0301 37.1087H4.91415V31.8881H11.98C13.2201 31.8881 14.2502 31.7181 15.0703 31.378C15.8904 31.038 16.5005 30.5279 16.9005 29.8478C17.3106 29.1678 17.5156 28.3227 17.5156 27.3125C17.5156 26.2924 17.3106 25.4323 16.9005 24.7322C16.5005 24.0322 15.8854 23.5021 15.0553 23.1421C14.2352 22.772 13.2001 22.587 11.95 22.587H7.56946V47.9999H1.07371ZM17.6656 34.0183L25.3015 47.9999H18.1307L10.6598 34.0183H17.6656ZM57.0302 32.6382C57.0302 35.9885 56.3951 38.8389 55.125 41.1891C53.8648 43.5394 52.1446 45.3346 49.9644 46.5748C47.7941 47.8049 45.3538 48.42 42.6435 48.42C39.9132 48.42 37.4629 47.7999 35.2927 46.5598C33.1224 45.3196 31.4072 43.5244 30.1471 41.1741C28.8869 38.8239 28.2569 35.9785 28.2569 32.6382C28.2569 29.2878 28.8869 26.4374 30.1471 24.0872C31.4072 21.7369 33.1224 19.9467 35.2927 18.7165C37.4629 17.4764 39.9132 16.8563 42.6435 16.8563C45.3538 16.8563 47.7941 17.4764 49.9644 18.7165C52.1446 19.9467 53.8648 21.7369 55.125 24.0872C56.3951 26.4374 57.0302 29.2878 57.0302 32.6382ZM50.4444 32.6382C50.4444 30.4679 50.1194 28.6377 49.4693 27.1475C48.8292 25.6573 47.9241 24.5272 46.754 23.7571C45.5839 22.987 44.2137 22.602 42.6435 22.602C41.0733 22.602 39.7032 22.987 38.533 23.7571C37.3629 24.5272 36.4528 25.6573 35.8027 27.1475C35.1627 28.6377 34.8426 30.4679 34.8426 32.6382C34.8426 34.8084 35.1627 36.6386 35.8027 38.1288C36.4528 39.619 37.3629 40.7491 38.533 41.5192C39.7032 42.2893 41.0733 42.6743 42.6435 42.6743C44.2137 42.6743 45.5839 42.2893 46.754 41.5192C47.9241 40.7491 48.8292 39.619 49.4693 38.1288C50.1194 36.6386 50.4444 34.8084 50.4444 32.6382ZM78.5089 26.1124C78.3889 24.9023 77.8739 23.9622 76.9638 23.2921C76.0536 22.622 74.8185 22.287 73.2583 22.287C72.1982 22.287 71.3031 22.437 70.573 22.737C69.8429 23.027 69.2829 23.4321 68.8928 23.9522C68.5128 24.4722 68.3228 25.0623 68.3228 25.7224C68.3028 26.2724 68.4178 26.7525 68.6678 27.1625C68.9278 27.5726 69.2829 27.9276 69.7329 28.2276C70.183 28.5177 70.703 28.7727 71.2931 28.9927C71.8832 29.2028 72.5132 29.3828 73.1833 29.5328L75.9436 30.1929C77.2838 30.4929 78.5139 30.893 79.6341 31.393C80.7542 31.8931 81.7243 32.5081 82.5444 33.2382C83.3645 33.9683 83.9996 34.8284 84.4496 35.8185C84.9097 36.8086 85.1447 37.9438 85.1547 39.2239C85.1447 41.1041 84.6646 42.7343 83.7145 44.1145C82.7744 45.4846 81.4143 46.5498 79.6341 47.3099C77.8639 48.0599 75.7286 48.435 73.2283 48.435C70.748 48.435 68.5878 48.0549 66.7476 47.2949C64.9174 46.5348 63.4872 45.4096 62.4571 43.9195C61.437 42.4193 60.9019 40.5641 60.8519 38.3538H67.1376C67.2076 39.3839 67.5027 40.244 68.0227 40.9341C68.5528 41.6142 69.2579 42.1293 70.138 42.4793C71.0281 42.8193 72.0332 42.9894 73.1533 42.9894C74.2534 42.9894 75.2086 42.8293 76.0186 42.5093C76.8387 42.1893 77.4738 41.7442 77.9239 41.1741C78.3739 40.6041 78.5989 39.949 78.5989 39.2089C78.5989 38.5188 78.3939 37.9388 77.9839 37.4687C77.5838 36.9987 76.9938 36.5986 76.2137 36.2686C75.4436 35.9385 74.4985 35.6385 73.3783 35.3685L70.033 34.5284C67.4427 33.8983 65.3974 32.9132 63.8972 31.573C62.3971 30.2329 61.652 28.4277 61.662 26.1574C61.652 24.2972 62.147 22.672 63.1472 21.2818C64.1573 19.8917 65.5424 18.8066 67.3026 18.0265C69.0628 17.2464 71.0631 16.8563 73.3033 16.8563C75.5836 16.8563 77.5738 17.2464 79.274 18.0265C80.9842 18.8066 82.3144 19.8917 83.2645 21.2818C84.2146 22.672 84.7047 24.2822 84.7347 26.1124H78.5089ZM88.3538 22.632V17.2764H113.587V22.632H104.181V47.9999H97.7599V22.632H88.3538Z" fill="#FAFAFA"/>
<path d="M198.226 29.9999L136.443 56.047V3.95291L198.226 29.9999Z" fill="#FAFAFA"/>
<path d="M166.542 30.0002L131.69 44.5865V15.4138L166.542 30.0002Z" fill="#F8E643"/>
</svg>
