<svg width="874" height="707" viewBox="0 0 874 707" fill="none" xmlns="http://www.w3.org/2000/svg">
<path d="M653.15 81.4138H702.935C703.811 81.4138 704.522 82.196 704.522 83.1602V123.359C704.522 125.065 703.266 126.447 701.716 126.447H682.508C682.285 126.447 682.073 126.548 681.921 126.725L665.955 145.329C665.441 145.928 664.562 145.503 664.562 144.657V127.397C664.562 126.872 664.197 126.446 663.747 126.446H653.15C651.71 126.446 650.544 125.086 650.544 123.409V84.4493C650.544 82.7737 651.71 81.4138 653.15 81.4138Z" fill="#555555"/>
<path d="M678.601 119.118C678.461 119.118 678.321 119.091 678.183 119.039L677.103 118.626C676.376 118.349 675.777 117.745 675.46 116.97L670.42 104.603L659.19 98.1146C658.866 97.9272 658.637 97.5945 658.563 97.1988C658.488 96.8045 658.579 96.3984 658.809 96.0853C659.609 94.9966 660.673 94.2027 661.888 93.794C663.385 93.2896 664.987 93.4062 666.406 94.1215L674.714 98.3124L683.96 94.9927C685.305 94.5106 686.772 94.884 687.787 95.9726L688.606 96.8517C688.773 97.0298 688.855 97.2761 688.833 97.5303C688.813 97.7831 688.693 98.0098 688.501 98.1513L682.796 102.421L687.87 105.232L692.495 103.458C692.947 103.287 693.446 103.365 693.83 103.673L694.601 104.285C694.895 104.518 695.076 104.88 695.097 105.278C695.12 105.676 694.978 106.059 694.713 106.329L691.902 109.064L693.899 111.214C694.08 111.41 694.136 111.705 694.039 111.965C693.943 112.224 693.715 112.393 693.461 112.393H689.211C688.739 112.393 688.275 112.308 687.83 112.139L678.659 108.675L679.846 117.527C679.911 118.012 679.745 118.486 679.402 118.799C679.17 119.007 678.887 119.118 678.601 119.118ZM663.757 94.4661C663.217 94.4661 662.676 94.5538 662.15 94.732C661.105 95.0844 660.19 95.7656 659.503 96.7023C659.418 96.8163 659.425 96.9381 659.436 96.9997C659.448 97.0613 659.485 97.1753 659.604 97.2434L670.97 103.811C671.059 103.862 671.13 103.944 671.17 104.045L676.273 116.568C676.49 117.096 676.898 117.507 677.395 117.699L678.474 118.111C678.648 118.178 678.781 118.085 678.829 118.041C678.877 117.997 678.986 117.874 678.958 117.67L677.664 108.019C677.641 107.85 677.701 107.679 677.821 107.569C677.941 107.461 678.103 107.429 678.251 107.483L688.116 111.209C688.467 111.341 688.835 111.409 689.206 111.409H692.8L690.931 109.397C690.843 109.301 690.794 109.17 690.798 109.034C690.801 108.896 690.856 108.768 690.949 108.679L694.113 105.6C694.199 105.513 694.208 105.397 694.205 105.338C694.201 105.278 694.18 105.165 694.076 105.084L693.305 104.472C693.155 104.354 692.963 104.322 692.784 104.39L687.982 106.232C687.869 106.276 687.744 106.266 687.635 106.207L681.712 102.926C681.572 102.848 681.479 102.693 681.468 102.519C681.458 102.346 681.533 102.178 681.662 102.081L687.867 97.4386L687.16 96.6801C686.384 95.8469 685.262 95.56 684.232 95.9307L674.821 99.3094C674.713 99.3474 674.6 99.3408 674.497 99.2884L666.032 95.0176C665.313 94.6495 664.537 94.4661 663.757 94.4661Z" fill="white"/>
<path d="M662.782 97.1727C662.693 97.1727 662.602 97.1517 662.517 97.1098L659.855 95.7892C659.78 95.7525 659.747 95.6556 659.78 95.5731C659.815 95.4892 659.904 95.4525 659.978 95.4905L662.639 96.8111C662.743 96.8648 662.864 96.8569 662.962 96.7901L663.827 96.1691L661.064 94.6062C660.993 94.5643 660.963 94.4661 661 94.3862C661.038 94.3062 661.129 94.2761 661.201 94.3154L664.192 96.008C664.238 96.0355 664.268 96.0866 664.271 96.1456C664.274 96.2032 664.248 96.2595 664.204 96.291L663.12 97.0692C663.016 97.1373 662.9 97.1727 662.782 97.1727Z" fill="white"/>
<path d="M698.546 97.9691H717.405C720.312 97.9691 722.668 95.3765 722.668 92.1774V71.4233C722.668 68.2242 720.312 65.6315 717.405 65.6315H698.546C695.639 65.6315 693.283 68.2242 693.283 71.4233V92.1774C693.283 95.3752 695.639 97.9691 698.546 97.9691Z" fill="#F8E643"/>
<path d="M701.078 81.8003C701.078 77.6147 704.172 74.2098 707.975 74.2098C711.779 74.2098 714.873 77.6147 714.873 81.8003C714.873 85.986 711.779 89.3909 707.975 89.3909C704.172 89.3909 701.078 85.9847 701.078 81.8003ZM702.246 81.8003C702.246 85.2773 704.816 88.1044 707.975 88.1044C711.135 88.1044 713.705 85.2759 713.705 81.8003C713.705 78.3234 711.135 75.495 707.975 75.495C704.816 75.495 702.246 78.3234 702.246 81.8003Z" fill="#222222"/>
<path d="M701.598 89.4721C701.446 89.4721 701.294 89.4079 701.177 89.2808C700.945 89.0253 700.945 88.61 701.177 88.3546L713.93 74.3199C714.162 74.0644 714.539 74.0644 714.771 74.3199C715.004 74.5753 715.004 74.9906 714.771 75.2461L702.019 89.2808C701.903 89.4079 701.751 89.4721 701.598 89.4721Z" fill="#222222"/>
<path d="M714.351 89.4721C714.199 89.4721 714.046 89.4079 713.93 89.2808L701.177 75.2461C700.945 74.9906 700.945 74.5753 701.177 74.3199C701.409 74.0644 701.786 74.0644 702.019 74.3199L714.771 88.3546C715.004 88.61 715.004 89.0253 714.771 89.2808C714.656 89.4079 714.504 89.4721 714.351 89.4721Z" fill="#222222"/>
<g opacity="0.51">
<path d="M749.818 193.838C749.818 196.536 751.804 198.722 754.255 198.722C756.706 198.722 758.693 196.536 758.693 193.838C758.693 191.141 756.706 188.954 754.255 188.954C751.804 188.954 749.818 191.141 749.818 193.838Z" fill="#F8E643"/>
<path d="M630.545 47.3142C630.545 48.6636 631.539 49.7562 632.764 49.7562C633.99 49.7562 634.983 48.6636 634.983 47.3142C634.983 45.9648 633.99 44.8722 632.764 44.8722C631.538 44.8722 630.545 45.9661 630.545 47.3142Z" fill="#F8E643"/>
<path d="M751.857 127.794C751.857 129.142 752.851 130.236 754.076 130.236C755.3 130.236 756.294 129.142 756.294 127.794C756.294 126.445 755.3 125.352 754.076 125.352C752.851 125.352 751.857 126.446 751.857 127.794Z" fill="#555555"/>
<path d="M743.993 72.0404C743.993 73.3884 744.985 74.4823 746.212 74.4823C747.438 74.4823 748.43 73.3884 748.43 72.0404C748.43 70.691 747.436 69.5984 746.212 69.5984C744.985 69.5984 743.993 70.6923 743.993 72.0404Z" fill="#555555"/>
<path d="M694.457 195.275C694.457 195.95 694.953 196.496 695.566 196.496C696.18 196.496 696.676 195.95 696.676 195.275C696.676 194.601 696.18 194.054 695.566 194.054C694.953 194.054 694.457 194.601 694.457 195.275Z" fill="#555555"/>
<path d="M601.143 6.71533C602.828 6.71533 604.194 5.21204 604.194 3.35763C604.194 1.50323 602.828 -6.10352e-05 601.143 -6.10352e-05C599.458 -6.10352e-05 598.092 1.50323 598.092 3.35763C598.092 5.21204 599.458 6.71533 601.143 6.71533Z" fill="#F8E643"/>
</g>
<path d="M243.774 79.4658H183.481C182.419 79.4658 181.559 80.413 181.559 81.5816V130.265C181.559 132.331 183.08 134.005 184.956 134.005H208.219C208.488 134.005 208.746 134.127 208.93 134.342L228.265 156.872C228.887 157.598 229.952 157.083 229.952 156.059V135.157C229.952 134.521 230.394 134.005 230.94 134.005H243.772C245.515 134.005 246.929 132.358 246.929 130.326V83.1445C246.929 81.1126 245.516 79.4658 243.774 79.4658Z" fill="#555555"/>
<path d="M212.952 125.021C212.625 125.021 212.305 124.896 212.042 124.658C211.654 124.303 211.466 123.763 211.538 123.214L212.999 112.324L201.746 116.575C201.217 116.775 200.665 116.876 200.104 116.876H194.957C194.687 116.876 194.445 116.698 194.343 116.421C194.24 116.145 194.3 115.833 194.494 115.626L196.982 112.946L193.511 109.567C193.201 109.255 193.042 108.822 193.067 108.371C193.092 107.92 193.295 107.51 193.63 107.247L194.565 106.506C195.007 106.156 195.58 106.061 196.095 106.262L201.733 108.423L208.056 104.919L201.013 99.6473C200.805 99.4928 200.675 99.2465 200.652 98.9713C200.629 98.6962 200.72 98.4277 200.899 98.2351L201.892 97.17C203.097 95.8783 204.839 95.4342 206.431 96.008L217.665 100.04L227.758 94.9481C229.455 94.09 231.374 93.9512 233.162 94.5551C234.617 95.0464 235.891 95.9949 236.847 97.2971C237.107 97.6534 237.208 98.1146 237.123 98.5613C237.039 99.008 236.78 99.3853 236.412 99.5976L222.784 107.471L216.665 122.48C216.295 123.392 215.59 124.104 214.732 124.431L213.424 124.932C213.27 124.993 213.111 125.021 212.952 125.021ZM213.548 111.106C213.65 111.106 213.751 111.146 213.832 111.219C213.952 111.329 214.011 111.499 213.989 111.668L212.423 123.357C212.395 123.568 212.463 123.766 212.612 123.901C212.761 124.037 212.951 124.073 213.133 124.004L214.442 123.504C215.068 123.263 215.583 122.744 215.854 122.078L222.035 106.913C222.076 106.812 222.146 106.73 222.235 106.678L236 98.7264C236.129 98.6517 236.222 98.5181 236.251 98.3595C236.28 98.201 236.244 98.0386 236.153 97.9128C235.31 96.7639 234.186 95.9268 232.901 95.4931C231.325 94.9599 229.631 95.0818 228.131 95.8403L217.881 101.012C217.778 101.064 217.664 101.071 217.556 101.033L206.156 96.9407C204.875 96.4822 203.483 96.8372 202.516 97.8722L201.523 98.9373L209.187 104.574C209.317 104.673 209.392 104.839 209.381 105.013C209.37 105.188 209.278 105.342 209.137 105.421L201.966 109.394C201.858 109.454 201.733 109.464 201.619 109.419L195.802 107.189C195.563 107.098 195.293 107.14 195.086 107.303L194.15 108.045C194.036 108.135 193.967 108.275 193.958 108.43C193.949 108.585 194.003 108.733 194.108 108.839L197.932 112.561C198.025 112.651 198.079 112.779 198.083 112.916C198.087 113.052 198.038 113.184 197.95 113.28L195.522 115.896H200.105C200.567 115.896 201.022 115.812 201.457 115.648L213.404 111.135C213.45 111.116 213.499 111.106 213.548 111.106Z" fill="white"/>
<path d="M232.105 98.5141C231.972 98.5141 231.837 98.4748 231.719 98.3975L230.404 97.4504C230.36 97.4189 230.334 97.3639 230.336 97.3049C230.34 97.246 230.369 97.1936 230.416 97.1674L234.036 95.1171C234.108 95.0778 234.199 95.1067 234.237 95.1879C234.274 95.2691 234.245 95.3674 234.173 95.408L230.779 97.3285L231.876 98.1185C231.998 98.1984 232.156 98.2089 232.293 98.1408L235.516 96.5412C235.591 96.5019 235.679 96.5399 235.713 96.6237C235.746 96.7062 235.713 96.8032 235.638 96.8399L232.414 98.4395C232.317 98.4905 232.211 98.5141 232.105 98.5141Z" fill="white"/>
<path d="M188.795 99.5137H165.957C162.437 99.5137 159.583 96.3735 159.583 92.4996V67.3647C159.583 63.4909 162.436 60.3493 165.957 60.3493H188.795C192.315 60.3493 195.17 63.4896 195.17 67.3634V92.4983C195.17 96.3735 192.317 99.5137 188.795 99.5137Z" fill="#F8E643"/>
<path d="M177.377 89.1236C172.771 89.1236 169.024 84.9995 169.024 79.9322C169.024 74.8635 172.771 70.7395 177.377 70.7395C181.983 70.7395 185.73 74.8622 185.73 79.9322C185.73 85.0008 181.981 89.1236 177.377 89.1236ZM177.377 72.2971C173.551 72.2971 170.438 75.723 170.438 79.9335C170.438 84.144 173.55 87.5686 177.377 87.5686C181.203 87.5686 184.316 84.144 184.316 79.9335C184.315 75.7216 181.203 72.2971 177.377 72.2971Z" fill="#222222"/>
<path d="M185.099 89.0856C184.947 89.0856 184.794 89.0214 184.678 88.8943L169.233 71.8976C169.001 71.6421 169.001 71.2268 169.233 70.9714C169.465 70.7159 169.843 70.7159 170.075 70.9714L185.519 87.9681C185.751 88.2236 185.751 88.6389 185.519 88.8943C185.403 89.0214 185.25 89.0856 185.099 89.0856Z" fill="#222222"/>
<path d="M169.655 89.0856C169.502 89.0856 169.35 89.0214 169.233 88.8943C169.001 88.6389 169.001 88.2236 169.233 87.9681L184.678 70.9714C184.91 70.7159 185.287 70.7159 185.519 70.9714C185.751 71.2268 185.751 71.6421 185.519 71.8976L170.075 88.8943C169.959 89.0214 169.807 89.0856 169.655 89.0856Z" fill="#222222"/>
<g opacity="0.51">
<path d="M177.308 197.806C177.308 200.504 175.321 202.69 172.87 202.69C170.419 202.69 168.432 200.504 168.432 197.806C168.432 195.109 170.419 192.923 172.87 192.923C175.321 192.923 177.308 195.109 177.308 197.806Z" fill="#F8E643"/>
<path d="M297.967 55.8624C297.967 57.2104 296.974 58.3043 295.748 58.3043C294.523 58.3043 293.529 57.2104 293.529 55.8624C293.529 54.513 294.523 53.4204 295.748 53.4204C296.974 53.4204 297.967 54.513 297.967 55.8624Z" fill="#F8E643"/>
<path d="M147.628 146.829C147.628 148.177 146.634 149.271 145.409 149.271C144.184 149.271 143.19 148.177 143.19 146.829C143.19 145.48 144.184 144.387 145.409 144.387C146.634 144.387 147.628 145.48 147.628 146.829Z" fill="#555555"/>
<path d="M203.659 24.7261C203.659 26.0741 202.665 27.168 201.44 27.168C200.214 27.168 199.221 26.0741 199.221 24.7261C199.221 23.3767 200.215 22.2841 201.44 22.2841C202.665 22.2841 203.659 23.3767 203.659 24.7261Z" fill="#555555"/>
<path d="M219.746 198.112C219.746 198.786 219.25 199.333 218.637 199.333C218.024 199.333 217.527 198.786 217.527 198.112C217.527 197.437 218.024 196.891 218.637 196.891C219.25 196.891 219.746 197.437 219.746 198.112Z" fill="#555555"/>
<path d="M279.66 16.1779C281.345 16.1779 282.711 14.6746 282.711 12.8202C282.711 10.9658 281.345 9.46252 279.66 9.46252C277.975 9.46252 276.609 10.9658 276.609 12.8202C276.609 14.6746 277.975 16.1779 279.66 16.1779Z" fill="#F8E643"/>
</g>
<path d="M543.463 503.154H349.682C335.507 503.154 324.016 490.507 324.016 474.907V39.8455C324.016 24.2453 335.507 11.5993 349.682 11.5993H543.463C557.639 11.5993 569.13 24.2453 569.13 39.8455V474.907C569.13 490.506 557.638 503.154 543.463 503.154Z" fill="white"/>
<path d="M539.175 496.056H353.97C341.07 496.056 330.613 484.547 330.613 470.351V42.2783C330.613 28.0825 341.07 16.5736 353.97 16.5736H539.175C552.074 16.5736 562.532 28.0825 562.532 42.2783V470.35C562.532 484.547 552.074 496.056 539.175 496.056Z" fill="#423E49"/>
<path opacity="0.89" d="M446.867 39.8442C446.867 39.8442 446.863 39.8442 446.861 39.8442C445.798 39.8442 444.798 39.3883 444.045 38.5616C443.292 37.7311 442.879 36.6293 442.879 35.4607C442.877 34.2935 443.292 33.193 444.045 32.3624C444.798 31.5345 445.796 31.0786 446.857 31.0786C446.859 31.0786 446.861 31.0786 446.863 31.0786C447.925 31.0786 448.924 31.5345 449.678 32.3611C450.432 33.1917 450.845 34.2935 450.844 35.4634C450.844 36.6332 450.428 37.7337 449.677 38.5616C449.246 39.0372 448.738 39.3883 448.166 39.6045C447.75 39.763 447.313 39.8442 446.867 39.8442ZM446.858 32.3873C446.113 32.3873 445.413 32.707 444.887 33.2873C444.36 33.869 444.068 34.6406 444.069 35.4594C444.068 36.2795 444.358 37.0525 444.887 37.6354C445.414 38.2145 446.115 38.5341 446.862 38.5341C446.862 38.5341 446.864 38.5341 446.867 38.5341C447.18 38.5341 447.487 38.4765 447.778 38.3651H447.78C448.177 38.2132 448.533 37.9682 448.837 37.6341C449.364 37.0538 449.656 36.2821 449.656 35.462C449.657 34.6419 449.366 33.8703 448.838 33.2873C448.311 32.7083 447.608 32.3886 446.863 32.3886C446.861 32.3873 446.858 32.3873 446.858 32.3873Z" fill="white"/>
<path opacity="0.89" d="M465.562 52.4221H465.56L426.673 52.4195L426.509 52.2728C425.54 51.4081 424.978 50.2867 424.925 49.1169C424.878 48.1133 425.207 47.1727 425.851 46.4666C426.445 45.8116 427.237 45.4487 428.078 45.4487C428.082 45.4487 428.087 45.4487 428.09 45.4487L465.633 45.45C465.635 45.45 465.636 45.45 465.636 45.45C466.482 45.45 467.276 45.8129 467.873 46.4705C468.47 47.1242 468.8 47.998 468.801 48.9321C468.799 50.419 467.94 51.7435 466.667 52.2296H466.666C466.335 52.3553 465.988 52.4195 465.636 52.4208L465.562 52.4221ZM427.106 51.1095L465.679 51.1121C465.885 51.1068 466.086 51.0662 466.279 50.9942C467.075 50.6902 467.611 49.8623 467.612 48.9348C467.611 48.3544 467.405 47.8081 467.033 47.4007C466.66 46.9893 466.166 46.7627 465.637 46.7627C465.636 46.7627 465.636 46.7627 465.635 46.7627L428.089 46.7614C428.087 46.7614 428.084 46.7614 428.082 46.7614C427.557 46.7614 427.064 46.9867 426.694 47.3954C426.29 47.8369 426.085 48.4238 426.115 49.0527C426.149 49.7837 426.498 50.5081 427.106 51.1095Z" fill="white"/>
<path d="M446.725 471.95C434.302 471.95 424.193 460.827 424.193 447.152C424.193 433.478 434.3 422.354 446.725 422.354C459.15 422.354 469.258 433.478 469.258 447.152C469.258 460.827 459.149 471.95 446.725 471.95ZM446.725 423.665C434.956 423.665 425.383 434.202 425.383 447.154C425.383 460.105 434.956 470.642 446.725 470.642C458.493 470.642 468.068 460.105 468.068 447.154C468.068 434.202 458.493 423.665 446.725 423.665Z" fill="white"/>
<path d="M446.725 465.388C456.043 465.388 463.597 457.075 463.597 446.821C463.597 436.566 456.043 428.253 446.725 428.253C437.407 428.253 429.853 436.566 429.853 446.821C429.853 457.075 437.407 465.388 446.725 465.388Z" fill="white"/>
<path d="M547.675 69.449H345.47V412.711H547.675V69.449Z" fill="white"/>
<path d="M547.675 68.1455H345.47V83.523H547.675V68.1455Z" fill="#555555"/>
<path d="M470.151 281.047H420.331C418.613 281.047 417.214 279.509 417.214 277.618V236.512C417.214 234.622 418.613 233.083 420.331 233.083H470.151C471.869 233.083 473.266 234.621 473.266 236.512V277.618C473.266 279.509 471.869 281.047 470.151 281.047ZM420.331 234.393C419.268 234.393 418.405 235.344 418.405 236.512V277.618C418.405 278.787 419.269 279.737 420.331 279.737H470.151C471.213 279.737 472.076 278.785 472.076 277.618V236.512C472.076 235.344 471.212 234.393 470.151 234.393H420.331Z" fill="#F8E643"/>
<path d="M450.096 251.159H440.386C440.058 251.159 439.791 250.865 439.791 250.504C439.791 250.142 440.058 249.849 440.386 249.849H450.096C450.425 249.849 450.692 250.142 450.692 250.504C450.692 250.867 450.425 251.159 450.096 251.159Z" fill="#F8E643"/>
<path d="M457.411 261.732H433.068C432.74 261.732 432.473 261.439 432.473 261.077C432.473 260.716 432.74 260.422 433.068 260.422H457.411C457.74 260.422 458.006 260.716 458.006 261.077C458.006 261.439 457.741 261.732 457.411 261.732Z" fill="#F8E643"/>
<path d="M409.093 281.047H359.274C357.556 281.047 356.158 279.509 356.158 277.618V236.512C356.158 234.622 357.556 233.083 359.274 233.083H409.093C410.81 233.083 412.209 234.621 412.209 236.512V277.618C412.209 279.509 410.81 281.047 409.093 281.047ZM359.273 234.393C358.211 234.393 357.348 235.344 357.348 236.512V277.618C357.348 278.787 358.212 279.737 359.273 279.737H409.091C410.155 279.737 411.018 278.785 411.018 277.618V236.512C411.018 235.344 410.153 234.393 409.091 234.393H359.273Z" fill="#F8E643"/>
<path d="M389.037 251.159H379.327C378.999 251.159 378.732 250.865 378.732 250.504C378.732 250.142 378.999 249.849 379.327 249.849H389.037C389.366 249.849 389.633 250.142 389.633 250.504C389.633 250.867 389.366 251.159 389.037 251.159Z" fill="#F8E643"/>
<path d="M396.355 261.732H372.012C371.683 261.732 371.417 261.439 371.417 261.077C371.417 260.716 371.683 260.422 372.012 260.422H396.355C396.683 260.422 396.95 260.716 396.95 261.077C396.95 261.439 396.683 261.732 396.355 261.732Z" fill="#F8E643"/>
<path d="M531.255 281.047H481.435C479.717 281.047 478.32 279.509 478.32 277.618V236.512C478.32 234.622 479.717 233.083 481.435 233.083H531.255C532.973 233.083 534.372 234.621 534.372 236.512V277.618C534.372 279.509 532.973 281.047 531.255 281.047ZM481.435 234.393C480.373 234.393 479.51 235.344 479.51 236.512V277.618C479.51 278.787 480.374 279.737 481.435 279.737H531.255C532.318 279.737 533.181 278.785 533.181 277.618V236.512C533.181 235.344 532.317 234.393 531.255 234.393H481.435Z" fill="#F8E643"/>
<path d="M511.2 251.159H501.49C501.162 251.159 500.895 250.865 500.895 250.504C500.895 250.142 501.162 249.849 501.49 249.849H511.2C511.529 249.849 511.796 250.142 511.796 250.504C511.796 250.867 511.529 251.159 511.2 251.159Z" fill="#F8E643"/>
<path d="M518.516 261.732H494.174C493.845 261.732 493.578 261.439 493.578 261.077C493.578 260.716 493.845 260.422 494.174 260.422H518.516C518.845 260.422 519.112 260.716 519.112 261.077C519.112 261.439 518.846 261.732 518.516 261.732Z" fill="#F8E643"/>
<path d="M531.255 281.047H481.435C479.717 281.047 478.32 279.509 478.32 277.618V236.512C478.32 234.622 479.717 233.083 481.435 233.083H531.255C532.973 233.083 534.372 234.621 534.372 236.512V277.618C534.372 279.509 532.973 281.047 531.255 281.047ZM481.435 234.393C480.373 234.393 479.51 235.344 479.51 236.512V277.618C479.51 278.787 480.374 279.737 481.435 279.737H531.255C532.318 279.737 533.181 278.785 533.181 277.618V236.512C533.181 235.344 532.317 234.393 531.255 234.393H481.435Z" fill="#F8E643"/>
<path d="M511.2 251.159H501.49C501.162 251.159 500.895 250.865 500.895 250.504C500.895 250.142 501.162 249.849 501.49 249.849H511.2C511.529 249.849 511.796 250.142 511.796 250.504C511.796 250.867 511.529 251.159 511.2 251.159Z" fill="#F8E643"/>
<path d="M518.516 261.732H494.174C493.845 261.732 493.578 261.439 493.578 261.077C493.578 260.716 493.845 260.422 494.174 260.422H518.516C518.845 260.422 519.112 260.716 519.112 261.077C519.112 261.439 518.846 261.732 518.516 261.732Z" fill="#F8E643"/>
<path d="M530.746 343.653H359.782C357.783 343.653 356.157 341.864 356.157 339.664V293.089C356.157 290.888 357.783 289.098 359.782 289.098H530.746C532.746 289.098 534.372 290.888 534.372 293.089V339.664C534.372 341.864 532.746 343.653 530.746 343.653ZM359.782 290.408C358.439 290.408 357.347 291.611 357.347 293.089V339.664C357.347 341.142 358.439 342.343 359.782 342.343H530.746C532.089 342.343 533.181 341.142 533.181 339.664V293.089C533.181 291.611 532.089 290.408 530.746 290.408H359.782Z" fill="#F8E643"/>
<path d="M530.746 402.172H359.782C357.783 402.172 356.157 400.383 356.157 398.183V351.608C356.157 349.408 357.783 347.619 359.782 347.619H530.746C532.746 347.619 534.372 349.408 534.372 351.608V398.183C534.372 400.382 532.746 402.172 530.746 402.172ZM359.782 348.929C358.439 348.929 357.347 350.13 357.347 351.608V398.183C357.347 399.661 358.439 400.862 359.782 400.862H530.746C532.089 400.862 533.181 399.661 533.181 398.183V351.608C533.181 350.13 532.089 348.929 530.746 348.929H359.782Z" fill="#F8E643"/>
<path opacity="0.6" d="M386.407 328.204H365.906V305.643H386.407V328.204ZM367.097 326.894H385.216V306.953H367.097V326.894Z" fill="#222222"/>
<path opacity="0.6" d="M386.407 386.175H365.906V363.615H386.407V386.175ZM367.097 384.865H385.216V364.925H367.097V384.865Z" fill="#222222"/>
<path d="M448.086 225.394H366.181C362.062 225.394 358.692 221.685 358.692 217.152V138.036C358.692 133.503 362.062 129.794 366.181 129.794H448.086C452.204 129.794 455.575 133.503 455.575 138.036V217.152C455.575 221.685 452.204 225.394 448.086 225.394Z" fill="#F8E643"/>
<path d="M403.17 208.297C402.62 208.297 402.082 208.088 401.641 207.687C400.988 207.091 400.672 206.184 400.795 205.261L403.534 184.847L382.504 192.79C381.554 193.149 380.564 193.331 379.559 193.331H370.1C369.695 193.331 369.334 193.064 369.182 192.651C369.03 192.237 369.118 191.771 369.408 191.459L374.152 186.346L367.592 179.962C367.078 179.443 366.811 178.719 366.851 177.964C366.892 177.21 367.235 176.524 367.792 176.083L369.511 174.721C370.266 174.123 371.238 173.967 372.118 174.304L382.569 178.311L394.616 171.637L381.354 161.713C381.031 161.469 380.825 161.083 380.789 160.652C380.756 160.221 380.897 159.802 381.178 159.499L383.002 157.543C385.153 155.237 388.261 154.442 391.117 155.465L411.843 162.906L430.47 153.508C433.539 151.959 437.012 151.708 440.239 152.798C442.868 153.686 445.173 155.4 446.902 157.757C447.339 158.353 447.509 159.123 447.369 159.871C447.227 160.62 446.794 161.253 446.178 161.609L421.065 176.117L409.79 203.778C409.133 205.39 407.885 206.649 406.367 207.231L403.965 208.151C403.704 208.249 403.437 208.297 403.17 208.297ZM404.265 183.223C404.402 183.223 404.538 183.274 404.645 183.374C404.806 183.52 404.884 183.747 404.854 183.974L401.974 205.452C401.91 205.918 402.07 206.377 402.4 206.678C402.729 206.978 403.166 207.067 403.575 206.911L405.978 205.992C407.188 205.528 408.183 204.526 408.705 203.239L420.064 175.372C420.119 175.238 420.212 175.128 420.331 175.06L445.626 160.446C445.925 160.274 446.136 159.967 446.203 159.602C446.273 159.24 446.189 158.865 445.979 158.577C444.398 156.424 442.293 154.859 439.893 154.048C436.942 153.052 433.772 153.283 430.967 154.696L412.13 164.202C411.996 164.27 411.842 164.279 411.698 164.23L390.75 156.71C388.319 155.836 385.667 156.515 383.834 158.48L382.01 160.436L381.691 161.169L382.026 160.627L396.124 171.177C396.299 171.308 396.398 171.531 396.383 171.761C396.369 171.993 396.245 172.199 396.057 172.303L382.88 179.604C382.735 179.684 382.566 179.695 382.417 179.637L371.729 175.539C371.216 175.342 370.649 175.435 370.21 175.783L368.491 177.145C368.225 177.355 368.063 177.681 368.043 178.04C368.024 178.399 368.151 178.744 368.392 178.987L375.422 185.83C375.547 185.95 375.619 186.122 375.624 186.304C375.627 186.486 375.563 186.662 375.445 186.789L370.592 192.02H379.563C380.434 192.02 381.296 191.861 382.121 191.55L404.075 183.257C404.135 183.235 404.2 183.223 404.265 183.223Z" fill="#222222"/>
<path d="M451.424 111.286H362.384C361.088 111.286 360.032 110.125 360.032 108.697V100.659C360.032 99.232 361.088 98.07 362.384 98.07H451.424C452.72 98.07 453.776 99.2307 453.776 100.659V108.697C453.776 110.124 452.72 111.286 451.424 111.286ZM362.384 99.38C361.743 99.38 361.222 99.9538 361.222 100.659V108.697C361.222 109.402 361.743 109.976 362.384 109.976H451.424C452.064 109.976 452.585 109.402 452.585 108.697V100.659C452.585 99.9538 452.064 99.38 451.424 99.38H362.384Z" fill="#4D67C2"/>
<path d="M536.393 119.133H360.812V120.443H536.393V119.133Z" fill="#4D67C2"/>
<path d="M532.624 174.017H465.266C463.874 174.017 462.744 172.775 462.744 171.242V134.009C462.744 132.477 463.873 131.234 465.266 131.234H532.624C534.016 131.234 535.146 132.476 535.146 134.009V171.242C535.146 172.775 534.017 174.017 532.624 174.017Z" fill="#555555"/>
<path d="M508.394 147.264H491.742C491.413 147.264 491.146 146.971 491.146 146.609C491.146 146.248 491.413 145.954 491.742 145.954H508.394C508.723 145.954 508.99 146.248 508.99 146.609C508.99 146.972 508.723 147.264 508.394 147.264Z" fill="white"/>
<path d="M520.941 156.96H479.196C478.867 156.96 478.601 156.667 478.601 156.305C478.601 155.943 478.867 155.65 479.196 155.65H520.941C521.27 155.65 521.537 155.943 521.537 156.305C521.537 156.667 521.27 156.96 520.941 156.96Z" fill="white"/>
<path d="M532.624 223.334H465.266C463.874 223.334 462.744 222.092 462.744 220.56V183.326C462.744 181.795 463.873 180.552 465.266 180.552H532.624C534.016 180.552 535.146 181.794 535.146 183.326V220.56C535.146 222.092 534.017 223.334 532.624 223.334Z" fill="#F8E643"/>
<path d="M508.394 196.582H491.742C491.413 196.582 491.146 196.288 491.146 195.927C491.146 195.565 491.413 195.271 491.742 195.271H508.394C508.723 195.271 508.99 195.565 508.99 195.927C508.99 196.288 508.723 196.582 508.394 196.582Z" fill="white"/>
<path d="M520.941 206.277H479.196C478.867 206.277 478.601 205.984 478.601 205.622C478.601 205.261 478.867 204.967 479.196 204.967H520.941C521.27 204.967 521.537 205.261 521.537 205.622C521.537 205.985 521.27 206.277 520.941 206.277Z" fill="white"/>
<path d="M406.388 322.124V309.694H413.03C414.746 309.694 416.013 310.001 416.83 310.617C417.647 311.221 418.055 311.996 418.055 312.943C418.055 313.571 417.878 314.133 417.523 314.63C417.179 315.116 416.676 315.5 416.013 315.785C415.35 316.069 414.533 316.211 413.562 316.211L413.918 315.252C414.888 315.252 415.723 315.388 416.422 315.66C417.132 315.933 417.676 316.329 418.055 316.85C418.446 317.359 418.641 317.975 418.641 318.697C418.641 319.774 418.191 320.615 417.292 321.219C416.404 321.822 415.102 322.124 413.385 322.124H406.388ZM410.508 319.194H413.03C413.491 319.194 413.835 319.111 414.06 318.946C414.296 318.78 414.415 318.537 414.415 318.218C414.415 317.898 414.296 317.655 414.06 317.489C413.835 317.324 413.491 317.241 413.03 317.241H410.224V314.471H412.461C412.935 314.471 413.278 314.394 413.491 314.24C413.716 314.074 413.829 313.843 413.829 313.547C413.829 313.239 413.716 313.008 413.491 312.854C413.278 312.701 412.935 312.624 412.461 312.624H410.508V319.194ZM426.658 322.408C425.64 322.408 424.699 322.249 423.835 321.929C422.982 321.609 422.242 321.159 421.615 320.579C420.987 319.987 420.496 319.295 420.141 318.502C419.797 317.708 419.626 316.844 419.626 315.909C419.626 314.962 419.797 314.098 420.141 313.316C420.496 312.523 420.987 311.836 421.615 311.256C422.242 310.664 422.982 310.208 423.835 309.889C424.699 309.569 425.634 309.409 426.64 309.409C427.659 309.409 428.594 309.569 429.446 309.889C430.299 310.208 431.039 310.664 431.666 311.256C432.293 311.836 432.779 312.523 433.122 313.316C433.477 314.098 433.655 314.962 433.655 315.909C433.655 316.844 433.477 317.708 433.122 318.502C432.779 319.295 432.293 319.987 431.666 320.579C431.039 321.159 430.299 321.609 429.446 321.929C428.594 322.249 427.664 322.408 426.658 322.408ZM426.64 319.017C427.031 319.017 427.392 318.946 427.724 318.804C428.067 318.661 428.363 318.46 428.612 318.2C428.872 317.927 429.073 317.602 429.215 317.223C429.357 316.832 429.428 316.394 429.428 315.909C429.428 315.424 429.357 314.991 429.215 314.613C429.073 314.222 428.872 313.896 428.612 313.636C428.363 313.364 428.067 313.156 427.724 313.014C427.392 312.872 427.031 312.801 426.64 312.801C426.25 312.801 425.883 312.872 425.539 313.014C425.208 313.156 424.912 313.364 424.651 313.636C424.403 313.896 424.207 314.222 424.065 314.613C423.923 314.991 423.852 315.424 423.852 315.909C423.852 316.394 423.923 316.832 424.065 317.223C424.207 317.602 424.403 317.927 424.651 318.2C424.912 318.46 425.208 318.661 425.539 318.804C425.883 318.946 426.25 319.017 426.64 319.017ZM441.711 322.408C440.693 322.408 439.752 322.249 438.888 321.929C438.035 321.609 437.295 321.159 436.668 320.579C436.04 319.987 435.549 319.295 435.194 318.502C434.85 317.708 434.679 316.844 434.679 315.909C434.679 314.962 434.85 314.098 435.194 313.316C435.549 312.523 436.04 311.836 436.668 311.256C437.295 310.664 438.035 310.208 438.888 309.889C439.752 309.569 440.687 309.409 441.693 309.409C442.712 309.409 443.647 309.569 444.499 309.889C445.352 310.208 446.092 310.664 446.719 311.256C447.346 311.836 447.832 312.523 448.175 313.316C448.53 314.098 448.708 314.962 448.708 315.909C448.708 316.844 448.53 317.708 448.175 318.502C447.832 319.295 447.346 319.987 446.719 320.579C446.092 321.159 445.352 321.609 444.499 321.929C443.647 322.249 442.717 322.408 441.711 322.408ZM441.693 319.017C442.084 319.017 442.445 318.946 442.777 318.804C443.12 318.661 443.416 318.46 443.665 318.2C443.925 317.927 444.126 317.602 444.268 317.223C444.41 316.832 444.481 316.394 444.481 315.909C444.481 315.424 444.41 314.991 444.268 314.613C444.126 314.222 443.925 313.896 443.665 313.636C443.416 313.364 443.12 313.156 442.777 313.014C442.445 312.872 442.084 312.801 441.693 312.801C441.303 312.801 440.936 312.872 440.592 313.014C440.261 313.156 439.965 313.364 439.704 313.636C439.456 313.896 439.26 314.222 439.118 314.613C438.976 314.991 438.905 315.424 438.905 315.909C438.905 316.394 438.976 316.832 439.118 317.223C439.26 317.602 439.456 317.927 439.704 318.2C439.965 318.46 440.261 318.661 440.592 318.804C440.936 318.946 441.303 319.017 441.693 319.017ZM453.976 319.461L453.745 314.861L458.433 309.694H462.997L457.741 315.483L455.414 317.862L453.976 319.461ZM450.229 322.124V309.694H454.349V322.124H450.229ZM458.398 322.124L454.74 317.294L457.457 314.417L463.246 322.124H458.398ZM467.644 314.311H473.184V317.33H467.644V314.311ZM467.928 318.963H474.143V322.124H463.808V309.694H473.912V312.854H467.928V318.963ZM475.757 322.124V309.694H481.883C483.268 309.694 484.488 309.948 485.542 310.457C486.595 310.954 487.418 311.665 488.01 312.588C488.602 313.512 488.898 314.613 488.898 315.891C488.898 317.182 488.602 318.294 488.01 319.23C487.418 320.153 486.595 320.869 485.542 321.379C484.488 321.876 483.268 322.124 481.883 322.124H475.757ZM479.948 318.857H481.706C482.298 318.857 482.813 318.744 483.251 318.519C483.701 318.294 484.05 317.963 484.298 317.525C484.547 317.075 484.671 316.53 484.671 315.891C484.671 315.264 484.547 314.731 484.298 314.293C484.05 313.855 483.701 313.523 483.251 313.298C482.813 313.074 482.298 312.961 481.706 312.961H479.948V318.857Z" fill="#222222"/>
<path d="M523.886 335.138H396.343C394.581 335.138 393.147 333.561 393.147 331.62V300.822C393.147 298.883 394.58 297.305 396.343 297.305H523.887C525.649 297.305 527.083 298.882 527.083 300.822V331.62C527.082 333.561 525.649 335.138 523.886 335.138ZM396.343 298.616C395.237 298.616 394.337 299.606 394.337 300.823V331.622C394.337 332.839 395.237 333.829 396.343 333.829H523.887C524.993 333.829 525.893 332.839 525.893 331.622V300.823C525.893 299.606 524.993 298.616 523.887 298.616H396.343Z" fill="#F8E643"/>
<path d="M412.447 381.33C411.453 381.33 410.53 381.176 409.677 380.869C408.837 380.549 408.103 380.099 407.475 379.519C406.859 378.939 406.38 378.252 406.037 377.459C405.693 376.666 405.522 375.79 405.522 374.831C405.522 373.872 405.693 372.996 406.037 372.203C406.38 371.409 406.859 370.723 407.475 370.143C408.103 369.562 408.837 369.119 409.677 368.811C410.53 368.491 411.453 368.331 412.447 368.331C413.667 368.331 414.744 368.544 415.679 368.971C416.627 369.397 417.408 370.012 418.024 370.817L415.378 373.179C415.011 372.718 414.602 372.362 414.152 372.114C413.714 371.853 413.217 371.723 412.661 371.723C412.222 371.723 411.826 371.794 411.471 371.936C411.116 372.078 410.808 372.285 410.547 372.558C410.299 372.83 410.103 373.161 409.961 373.552C409.819 373.931 409.748 374.357 409.748 374.831C409.748 375.304 409.819 375.736 409.961 376.127C410.103 376.506 410.299 376.832 410.547 377.104C410.808 377.376 411.116 377.583 411.471 377.725C411.826 377.867 412.222 377.938 412.661 377.938C413.217 377.938 413.714 377.814 414.152 377.566C414.602 377.305 415.011 376.944 415.378 376.482L418.024 378.844C417.408 379.637 416.627 380.253 415.679 380.691C414.744 381.117 413.667 381.33 412.447 381.33ZM417.711 381.046L423.145 368.615H427.265L432.699 381.046H428.366L424.352 370.604H425.986L421.973 381.046H417.711ZM420.943 378.88L422.008 375.861H427.726L428.792 378.88H420.943ZM433.367 381.046V368.615H436.813L443.135 376.18H441.536V368.615H445.621V381.046H442.176L435.854 373.481H437.452V381.046H433.367ZM454.069 381.33C453.074 381.33 452.151 381.176 451.298 380.869C450.458 380.549 449.724 380.099 449.096 379.519C448.481 378.939 448.001 378.252 447.658 377.459C447.315 376.666 447.143 375.79 447.143 374.831C447.143 373.872 447.315 372.996 447.658 372.203C448.001 371.409 448.481 370.723 449.096 370.143C449.724 369.562 450.458 369.119 451.298 368.811C452.151 368.491 453.074 368.331 454.069 368.331C455.288 368.331 456.365 368.544 457.301 368.971C458.248 369.397 459.029 370.012 459.645 370.817L456.999 373.179C456.632 372.718 456.223 372.362 455.773 372.114C455.335 371.853 454.838 371.723 454.282 371.723C453.844 371.723 453.447 371.794 453.092 371.936C452.737 372.078 452.429 372.285 452.168 372.558C451.92 372.83 451.724 373.161 451.582 373.552C451.44 373.931 451.369 374.357 451.369 374.831C451.369 375.304 451.44 375.736 451.582 376.127C451.724 376.506 451.92 376.832 452.168 377.104C452.429 377.376 452.737 377.583 453.092 377.725C453.447 377.867 453.844 377.938 454.282 377.938C454.838 377.938 455.335 377.814 455.773 377.566C456.223 377.305 456.632 376.944 456.999 376.482L459.645 378.844C459.029 379.637 458.248 380.253 457.301 380.691C456.365 381.117 455.288 381.33 454.069 381.33ZM464.691 373.233H470.231V376.251H464.691V373.233ZM464.975 377.885H471.19V381.046H460.855V368.615H470.959V371.776H464.975V377.885ZM472.804 381.046V368.615H476.995V377.796H482.606V381.046H472.804ZM487.6 373.233H493.14V376.251H487.6V373.233ZM487.884 377.885H494.099V381.046H483.764V368.615H493.868V371.776H487.884V377.885ZM495.713 381.046V368.615H501.839C503.224 368.615 504.444 368.87 505.497 369.379C506.551 369.876 507.374 370.587 507.966 371.51C508.558 372.433 508.854 373.534 508.854 374.813C508.854 376.103 508.558 377.216 507.966 378.152C507.374 379.075 506.551 379.791 505.497 380.3C504.444 380.798 503.224 381.046 501.839 381.046H495.713ZM499.903 377.779H501.662C502.254 377.779 502.769 377.666 503.207 377.441C503.656 377.216 504.006 376.885 504.254 376.447C504.503 375.997 504.627 375.452 504.627 374.813C504.627 374.186 504.503 373.653 504.254 373.215C504.006 372.777 503.656 372.445 503.207 372.22C502.769 371.995 502.254 371.883 501.662 371.883H499.903V377.779Z" fill="#222222"/>
<path d="M523.886 394.357H396.343C394.581 394.357 393.147 392.779 393.147 390.84V360.042C393.147 358.103 394.58 356.525 396.343 356.525H523.887C525.649 356.525 527.083 358.102 527.083 360.042V390.84C527.082 392.779 525.649 394.357 523.886 394.357ZM396.343 357.836C395.237 357.836 394.337 358.826 394.337 360.043V390.842C394.337 392.059 395.237 393.048 396.343 393.048H523.887C524.993 393.048 525.893 392.059 525.893 390.842V360.043C525.893 358.826 524.993 357.836 523.887 357.836H396.343Z" fill="#F8E643"/>
<path d="M195.398 334.087L209.034 275.202L205.963 274.039L192.327 332.923L195.398 334.087Z" fill="#323233"/>
<path d="M224.696 343.928L238.333 285.045L235.262 283.88L221.624 342.765L224.696 343.928Z" fill="#323233"/>
<path d="M239.795 288.042L201.858 277.946C199.889 277.422 198.68 275.24 199.156 273.075L199.264 272.582C199.741 270.415 201.721 269.084 203.69 269.608L241.628 279.705C243.597 280.229 244.806 282.409 244.33 284.576L244.222 285.069C243.745 287.234 241.763 288.566 239.795 288.042Z" fill="#141C34"/>
<path d="M194.861 489.245L142.103 472.971C138.497 471.859 136.393 467.74 137.403 463.772L171.318 330.612C172.329 326.643 176.072 324.327 179.677 325.439L232.435 341.713C236.041 342.825 238.146 346.944 237.135 350.912L203.22 484.072C202.211 488.042 198.468 490.357 194.861 489.245Z" fill="#F8E543"/>
<path opacity="0.49" d="M207.469 465.421L155.892 449.954C151.848 448.706 149.481 444.075 150.615 439.629L177.804 332.878C178.353 330.723 179.63 328.933 181.401 327.837C183.173 326.74 185.225 326.468 187.183 327.074L186.863 328.336C185.212 327.826 183.48 328.054 181.984 328.979C180.489 329.904 179.412 331.413 178.949 333.23L151.76 439.981C151.297 441.799 151.504 443.706 152.344 445.35C153.185 446.995 154.556 448.182 156.207 448.692L207.781 464.157L207.469 465.421Z" fill="#111111"/>
<path opacity="0.49" d="M188.813 488.624L143.285 474.069L144.223 470.509C145.032 467.457 147.947 465.696 150.718 466.579L186.182 477.916C187.526 478.346 188.638 479.326 189.312 480.675C189.985 482.026 190.142 483.585 189.752 485.064L188.813 488.624ZM144.759 473.175L188.001 486.999L188.608 484.699C188.91 483.556 188.789 482.351 188.269 481.308C187.747 480.264 186.889 479.507 185.85 479.175L150.386 467.838C148.237 467.152 145.991 468.517 145.367 470.875L144.759 473.175Z" fill="#111111"/>
<path d="M197.447 488.684C198.468 495.224 194.478 501.436 188.535 502.56C182.593 503.684 176.948 499.293 175.926 492.753C174.905 486.213 178.895 480.001 184.838 478.877C190.78 477.753 196.427 482.144 197.447 488.684Z" fill="#434343"/>
<path opacity="0.27" d="M192.678 489.585C193.247 493.227 191.024 496.686 187.716 497.311C184.408 497.936 181.264 495.491 180.695 491.85C180.127 488.208 182.349 484.75 185.657 484.125C188.965 483.5 192.11 485.945 192.678 489.585Z" fill="#A2D5F2"/>
<path opacity="0.49" d="M195.471 446.523C195.256 446.523 195.042 446.491 194.831 446.424L192.905 445.808C192.322 445.621 191.839 445.195 191.546 444.609C191.253 444.023 191.184 443.345 191.354 442.703L213.871 357.4C214.041 356.758 214.428 356.226 214.96 355.904C215.491 355.583 216.108 355.508 216.692 355.693L218.617 356.308C219.2 356.496 219.684 356.922 219.977 357.507C220.269 358.094 220.338 358.771 220.168 359.413L197.651 444.717C197.481 445.359 197.096 445.891 196.563 446.213C196.223 446.419 195.849 446.523 195.471 446.523ZM216.055 356.903C215.876 356.903 215.696 356.953 215.534 357.051C215.279 357.205 215.095 357.459 215.015 357.765L192.498 443.069C192.417 443.375 192.449 443.698 192.589 443.977C192.728 444.257 192.959 444.46 193.237 444.549L195.163 445.165C195.438 445.251 195.735 445.219 195.988 445.065C196.243 444.912 196.427 444.659 196.506 444.353L219.023 359.048C219.104 358.741 219.072 358.419 218.933 358.14C218.793 357.86 218.562 357.657 218.284 357.567L216.359 356.952C216.26 356.92 216.158 356.903 216.055 356.903Z" fill="#111111"/>
<path opacity="0.49" d="M176.325 440.404C176.115 440.404 175.903 440.373 175.691 440.305L173.766 439.689C173.183 439.501 172.699 439.076 172.406 438.49C172.114 437.905 172.045 437.227 172.215 436.585L194.732 351.28C195.083 349.956 196.343 349.192 197.552 349.573L199.478 350.19C200.061 350.378 200.543 350.802 200.837 351.388C201.13 351.973 201.199 352.651 201.029 353.294L178.512 438.598C178.223 439.691 177.312 440.404 176.325 440.404ZM196.918 350.785C196.448 350.785 196.012 351.125 195.876 351.646L173.359 436.951C173.278 437.256 173.31 437.58 173.449 437.857C173.589 438.138 173.819 438.341 174.098 438.43L176.023 439.046C176.299 439.133 176.594 439.099 176.848 438.946C177.103 438.793 177.287 438.54 177.367 438.232L199.884 352.929C199.965 352.622 199.932 352.3 199.793 352.021C199.654 351.74 199.423 351.539 199.146 351.449L197.218 350.832C197.12 350.801 197.018 350.785 196.918 350.785Z" fill="#111111"/>
<path d="M329.246 159.145C328.262 157.387 327.03 155.756 326.626 153.623C326.005 150.344 327.514 147.121 328.303 143.913C329.582 138.716 328.892 132.708 326.505 128.263C324.339 124.233 321.045 121.667 318.071 118.69C317.454 118.067 317.879 114.35 317.818 113.432C317.598 110.087 317.259 106.701 316.433 103.458C315.106 98.2534 312.434 94.2564 307.928 91.8276C303.542 89.4629 298.543 88.6533 293.683 88.5393C289.74 88.4463 285.762 88.7712 281.968 89.9293C278.174 91.0874 274.561 93.1088 271.766 96.1023C267.28 100.906 265.935 107.311 265.837 113.897C265.826 114.727 266.307 118.393 265.873 118.829C262.911 121.82 257.006 124.41 254.859 128.452C252.492 132.91 251.827 138.92 253.129 144.111C253.932 147.315 255.455 150.529 254.849 153.812C254.455 155.946 253.23 157.585 252.252 159.347C251.275 161.11 250.495 163.44 251.143 165.458C252.746 170.467 261.79 169.068 264.942 169.193C271.768 169.467 278.598 169.61 285.427 169.623C287.209 169.627 288.991 169.597 290.772 169.582C292.554 169.588 294.336 169.607 296.117 169.594C302.946 169.544 309.775 169.365 316.6 169.056C319.751 168.913 328.801 170.264 330.383 165.247C331.02 163.227 330.231 160.903 329.246 159.145Z" fill="#423E49"/>
<path d="M311.736 112.263L309.596 112.245C308.658 112.237 307.785 111.731 307.272 110.899L305.565 108.131C304.807 108.125 304.948 112.169 304.209 112.093C299.987 111.659 296.139 110.108 292.986 107.787C293.106 115.449 290.105 121.7 285.764 122.23L280.87 122.829C280.358 122.892 279.897 122.486 279.841 121.924L279.435 117.903C279.401 117.562 279.383 117.227 279.362 116.89L277.909 116.892L275.124 116.835C271.825 116.77 269.076 119.685 269.017 123.315C268.956 126.945 271.606 129.969 274.905 130.036L276.072 130.059V157.42C276.072 163.175 280.351 167.885 285.58 167.885H289.459C294.688 167.885 298.968 163.176 298.968 157.42V149.696C302.646 148.714 305.798 146.245 307.854 142.876C310.055 140.088 311.416 136.471 311.483 132.489L311.795 113.673C311.8 113.196 311.765 112.731 311.736 112.263Z" fill="#FFA698"/>
<path opacity="0.41" d="M279.032 131.837C278.882 140.844 285.396 148.278 293.58 148.443L296.39 148.5C300.947 148.591 305.057 146.405 307.834 142.898C305.69 146.393 302.367 148.932 298.497 149.819C298.487 149.852 298.482 149.884 298.473 149.916C297.084 154.635 292.481 157.219 288.194 155.691C284.374 154.328 282.101 150.159 282.631 145.931C279.499 142.851 277.55 138.353 277.633 133.368L277.688 130.092L279.061 130.119L279.032 131.837Z" fill="#FF755F"/>
<path d="M273.162 125.238C273.244 125.238 273.328 125.218 273.404 125.176L275.922 123.815C276.067 123.737 276.173 123.594 276.212 123.422C276.253 123.251 276.222 123.069 276.13 122.924L273.975 119.537C273.8 119.262 273.459 119.195 273.209 119.387C272.959 119.579 272.899 119.957 273.073 120.231L274.86 123.04L272.921 124.089C272.647 124.237 272.535 124.599 272.668 124.9C272.763 125.114 272.959 125.238 273.162 125.238Z" fill="#FF755F"/>
<path d="M275.457 127.649C275.394 128.251 274.899 128.685 274.351 128.615C273.804 128.546 273.411 128.001 273.473 127.398C273.536 126.796 274.031 126.362 274.579 126.432C275.126 126.501 275.52 127.046 275.457 127.649Z" fill="white"/>
<mask id="mask0_7_1211" style="mask-type:luminance" maskUnits="userSpaceOnUse" x="304" y="122" width="8" height="6">
<path d="M311.089 125.852C310.956 124.756 310.421 123.128 308.437 122.79C308.109 122.733 307.806 122.737 307.52 122.779C306.195 122.972 305.296 124.084 304.761 125.038C304.364 125.742 304.73 126.68 305.47 126.839C307.493 127.271 309.512 127.106 310.497 126.977C310.87 126.928 311.146 126.566 311.119 126.155C311.111 126.059 311.102 125.959 311.089 125.852Z" fill="white"/>
</mask>
<g mask="url(#mask0_7_1211)">
<path d="M311.089 125.852C310.956 124.756 310.421 123.128 308.437 122.79C308.109 122.733 307.806 122.737 307.52 122.779C306.195 122.972 305.296 124.084 304.761 125.038C304.364 125.742 304.73 126.68 305.47 126.839C307.493 127.271 309.512 127.106 310.497 126.977C310.87 126.928 311.146 126.566 311.119 126.155C311.111 126.059 311.102 125.959 311.089 125.852Z" fill="white"/>
</g>
<mask id="mask1_7_1211" style="mask-type:luminance" maskUnits="userSpaceOnUse" x="304" y="122" width="8" height="6">
<path d="M311.089 125.852C310.956 124.756 310.421 123.128 308.437 122.79C308.109 122.733 307.806 122.737 307.52 122.779C306.195 122.972 305.296 124.084 304.761 125.038C304.364 125.742 304.73 126.68 305.47 126.839C307.493 127.271 309.512 127.106 310.497 126.977C310.87 126.928 311.146 126.566 311.119 126.155C311.111 126.059 311.102 125.959 311.089 125.852Z" fill="white"/>
</mask>
<g mask="url(#mask1_7_1211)">
<path d="M310.832 126.206C310.832 127.383 309.878 128.336 308.702 128.336C307.526 128.336 306.572 127.383 306.572 126.206C306.572 125.03 307.526 124.076 308.702 124.076C309.878 124.076 310.832 125.028 310.832 126.206Z" fill="#423E49"/>
</g>
<path d="M303.941 120.096L303.889 124.656C303.881 125.443 304.538 126.111 305.382 126.174C305.986 126.218 306.448 126.708 306.413 127.269C306.306 129.031 304.681 130.345 302.785 130.206L301.293 130.096" fill="#FFA698"/>
<path d="M303.064 130.82C303.996 130.82 304.887 130.512 305.596 129.937C306.415 129.274 306.901 128.342 306.963 127.308C307.018 126.416 306.326 125.635 305.42 125.568C304.874 125.528 304.434 125.122 304.439 124.663L304.49 120.103C304.494 119.767 304.251 119.493 303.948 119.49C303.944 119.49 303.943 119.49 303.94 119.49C303.639 119.49 303.394 119.757 303.39 120.087L303.339 124.647C303.327 125.757 304.21 126.692 305.346 126.776C305.636 126.798 305.878 127.008 305.865 127.227C305.825 127.898 305.499 128.515 304.945 128.96C304.364 129.43 303.602 129.653 302.824 129.599L301.333 129.489C301.006 129.471 300.767 129.72 300.748 130.053C300.728 130.387 300.957 130.675 301.26 130.697L302.75 130.807C302.854 130.816 302.958 130.82 303.064 130.82Z" fill="#FF755F"/>
<path d="M298.509 135.943C298.509 135.943 297.91 131.125 292.715 132.151L298.509 135.943Z" fill="#FFA698"/>
<path d="M298.508 136.433C298.288 136.433 298.098 136.254 298.067 136.009C298.064 135.992 297.831 134.3 296.553 133.283C295.624 132.544 294.359 132.326 292.794 132.633C292.544 132.684 292.319 132.502 292.275 132.236C292.233 131.969 292.393 131.714 292.636 131.665C294.455 131.308 295.951 131.585 297.086 132.493C298.673 133.763 298.941 135.787 298.95 135.873C298.983 136.142 298.814 136.388 298.57 136.425C298.549 136.431 298.529 136.433 298.508 136.433Z" fill="#FF755F"/>
<mask id="mask2_7_1211" style="mask-type:luminance" maskUnits="userSpaceOnUse" x="292" y="121" width="9" height="6">
<path d="M300.919 124.857C300.756 123.517 300.103 121.527 297.678 121.114C297.278 121.046 296.908 121.05 296.558 121.101C294.937 121.335 293.84 122.697 293.185 123.86C292.701 124.722 293.148 125.868 294.052 126.061C296.523 126.589 298.992 126.387 300.195 126.229C300.65 126.168 300.988 125.727 300.955 125.224C300.948 125.11 300.935 124.985 300.919 124.857Z" fill="white"/>
</mask>
<g mask="url(#mask2_7_1211)">
<path d="M300.919 124.857C300.756 123.517 300.103 121.527 297.678 121.114C297.278 121.046 296.908 121.05 296.558 121.101C294.937 121.335 293.84 122.697 293.185 123.86C292.701 124.722 293.148 125.868 294.052 126.061C296.523 126.589 298.992 126.387 300.195 126.229C300.65 126.168 300.988 125.727 300.955 125.224C300.948 125.11 300.935 124.985 300.919 124.857Z" fill="white"/>
</g>
<mask id="mask3_7_1211" style="mask-type:luminance" maskUnits="userSpaceOnUse" x="292" y="121" width="9" height="6">
<path d="M300.919 124.857C300.756 123.517 300.103 121.527 297.678 121.114C297.278 121.046 296.908 121.05 296.558 121.101C294.937 121.335 293.84 122.697 293.185 123.86C292.701 124.722 293.148 125.868 294.052 126.061C296.523 126.589 298.992 126.387 300.195 126.229C300.65 126.168 300.988 125.727 300.955 125.224C300.948 125.11 300.935 124.985 300.919 124.857Z" fill="white"/>
</mask>
<g mask="url(#mask3_7_1211)">
<path d="M300.605 125.288C300.605 126.726 299.439 127.892 298.001 127.892C296.563 127.892 295.398 126.726 295.398 125.288C295.398 123.849 296.563 122.683 298.001 122.683C299.439 122.683 300.605 123.849 300.605 125.288Z" fill="#423E49"/>
</g>
<path d="M300.573 118.572C300.141 118.333 299.564 118.356 299.006 118.343C298.443 118.343 297.879 118.329 297.388 118.296C296.897 118.265 296.334 118.206 295.774 118.132C295.218 118.072 294.644 117.974 294.197 118.156C293.765 118.325 293.562 118.875 294.024 119.6C294.458 120.303 295.644 121.115 297.27 121.225C298.895 121.326 300.142 120.674 300.629 120.031C301.145 119.372 300.989 118.796 300.573 118.572Z" fill="#423E49"/>
<path d="M305.265 119.729C305.642 119.503 306.153 119.503 306.647 119.471C307.146 119.452 307.646 119.419 308.081 119.373C308.515 119.327 309.013 119.256 309.507 119.171C309.998 119.099 310.503 118.992 310.906 119.137C311.294 119.272 311.489 119.753 311.1 120.412C310.737 121.051 309.707 121.812 308.269 121.967C306.831 122.114 305.708 121.578 305.258 121.025C304.781 120.456 304.903 119.943 305.265 119.729Z" fill="#423E49"/>
<g opacity="0.61">
<path d="M296.681 142.165C296.681 142.165 298.087 140.734 299.754 142.165H296.681Z" fill="#FFA698"/>
<path d="M299.754 142.657C299.657 142.657 299.561 142.623 299.48 142.553C298.165 141.424 297.099 142.41 296.983 142.528C296.803 142.709 296.518 142.695 296.354 142.497C296.187 142.298 296.198 141.99 296.378 141.806C296.961 141.213 298.477 140.444 300.028 141.78C300.223 141.947 300.256 142.256 300.105 142.469C300.018 142.593 299.886 142.657 299.754 142.657Z" fill="#FF755F"/>
</g>
<path d="M224.607 258.033L214.907 259.948C213.184 260.289 211.729 261.555 211.034 263.323L206.837 273.987C206.002 276.106 206.938 278.563 208.896 279.396L210.922 280.257L211.688 272.664L210.595 283.5C210.472 284.712 211.448 285.703 212.515 285.448C213.467 285.222 214.248 284.459 214.577 283.434L218.028 272.669L215.565 285.408C215.389 286.32 216.274 287.023 216.986 286.537C219.697 284.682 221.755 281.841 222.815 278.489L223.735 275.577C223.735 275.577 229.074 278.931 235.552 276.503C237.619 275.729 239.017 273.657 239.157 271.26C239.442 266.384 237.863 258.415 224.607 258.033Z" fill="#FFA698"/>
<path d="M210.315 280.018C210.187 279.919 210.113 279.743 210.138 279.557L211.216 271.706C211.252 271.449 211.468 271.272 211.699 271.312C211.929 271.352 212.087 271.592 212.051 271.85L210.972 279.701C210.937 279.958 210.721 280.135 210.49 280.096C210.426 280.085 210.366 280.058 210.315 280.018Z" fill="#FF8E77"/>
<path d="M216.481 273.498C216.333 273.384 216.262 273.174 216.316 272.973C216.384 272.724 216.619 272.582 216.842 272.657C216.842 272.657 217.665 272.935 218.578 273.266C218.803 273.347 218.922 273.613 218.85 273.86C218.778 274.109 218.54 274.243 218.319 274.164C217.413 273.837 216.597 273.561 216.597 273.561C216.556 273.547 216.516 273.526 216.481 273.498Z" fill="#FF8E77"/>
<path d="M210.736 271.579C210.588 271.465 210.517 271.255 210.571 271.053C210.639 270.805 210.874 270.663 211.097 270.739C211.097 270.739 211.92 271.017 212.833 271.347C213.053 271.426 213.177 271.693 213.105 271.94C213.033 272.189 212.795 272.324 212.574 272.244C211.669 271.918 210.855 271.643 210.852 271.643C210.809 271.626 210.77 271.605 210.736 271.579Z" fill="#FF8E77"/>
<path d="M223.111 276.346C222.955 276.226 222.886 275.999 222.955 275.792C223.188 275.099 223.238 274.118 223.238 274.109C223.25 273.848 223.449 273.647 223.682 273.662C223.916 273.676 224.094 273.899 224.081 274.158C224.079 274.204 224.024 275.293 223.746 276.125C223.663 276.368 223.419 276.493 223.201 276.401C223.169 276.385 223.138 276.368 223.111 276.346Z" fill="#FF8E77"/>
<path d="M274.66 155.985C274.66 165.422 280.796 173.072 288.365 173.072C295.933 173.072 302.07 165.423 302.07 155.985C302.07 155.973 302.07 155.963 302.07 155.951C302.062 154.115 300.74 152.639 299.146 152.607C294.041 152.502 282.89 152.518 277.699 152.533C276.051 152.537 274.668 154.052 274.66 155.95C274.66 155.96 274.66 155.973 274.66 155.985Z" fill="#F8E643"/>
<path d="M326.725 163.35L315.635 161.818C314.148 161.612 313.093 160.12 313.279 158.482L316.552 129.652C316.737 128.013 318.096 126.852 319.585 127.058L330.675 128.591C332.162 128.796 333.216 130.288 333.031 131.926L329.757 160.757C329.572 162.394 328.214 163.556 326.725 163.35Z" fill="white"/>
<path d="M314.642 148.28C314.454 149.381 314.858 150.475 315.539 150.711L316.646 151.095C316.098 150.985 315.541 151.509 315.359 152.391C315.272 152.812 315.299 153.232 315.391 153.604C315.361 153.795 315.406 153.956 315.548 154.075C315.56 154.084 315.579 154.101 315.592 154.112C315.722 154.341 315.877 154.534 316.078 154.623L316.358 154.746C318.156 156.217 322.13 159.857 325.637 161.405L337.617 156.881C337.528 153.824 336.991 146.976 335.52 144.317C334.72 142.87 333.96 141.434 333.051 141.085L332.078 139.946C331.928 141.262 331.381 142.404 330.6 143.286C330.478 143.199 330.363 143.1 330.222 143.059L317.292 139.277C316.459 139.033 315.637 139.785 315.466 140.95C315.34 141.81 315.606 142.661 316.09 143.145L315.787 143.055C315.102 142.848 314.403 143.586 314.233 144.693C314.062 145.8 314.484 146.875 315.169 147.082L315.173 147.083C314.923 147.368 314.728 147.78 314.642 148.28ZM317.199 151.286L317.255 151.306L317.252 151.31L317.199 151.286Z" fill="#FFA698"/>
<path d="M321.134 144.748C321.296 144.755 321.442 144.635 321.479 144.455C321.519 144.254 321.405 144.055 321.222 144.01L315.861 142.689C315.671 142.642 315.497 142.771 315.455 142.972C315.415 143.174 315.529 143.373 315.712 143.418L321.073 144.738C321.094 144.744 321.113 144.746 321.134 144.748Z" fill="#FB8E77"/>
<path d="M320.717 148.78C320.873 148.786 321.018 148.674 321.058 148.502C321.106 148.303 320.998 148.099 320.817 148.046L316.191 146.71C316 146.66 315.823 146.777 315.777 146.976C315.729 147.175 315.837 147.379 316.018 147.432L320.644 148.769C320.669 148.775 320.692 148.779 320.717 148.78Z" fill="#FB8E77"/>
<path d="M320.63 152.759C320.781 152.765 320.923 152.66 320.969 152.493C321.023 152.296 320.922 152.087 320.742 152.028L316.792 150.72C316.608 150.66 316.423 150.773 316.368 150.97C316.315 151.167 316.416 151.376 316.596 151.435L320.546 152.743C320.575 152.753 320.603 152.757 320.63 152.759Z" fill="#FB8E77"/>
<path d="M288.147 177.269V171.206C288.147 162.432 281.684 155.32 273.712 155.32C273.712 155.32 267.652 177.026 288.147 177.269Z" fill="white"/>
<path d="M288.071 177.269V171.206C288.071 162.432 294.534 155.32 302.506 155.32C302.506 155.32 308.566 177.026 288.071 177.269Z" fill="white"/>
<path d="M319.365 216.003C319.176 216.003 318.989 215.902 318.873 215.716L313.838 207.572C313.653 207.273 313.722 206.866 313.995 206.661C314.266 206.459 314.636 206.534 314.821 206.834L319.856 214.979C320.041 215.277 319.972 215.685 319.699 215.889C319.597 215.967 319.48 216.003 319.365 216.003Z" fill="#FDFDFD"/>
<path d="M320.834 188.305C320.813 188.305 320.794 188.303 320.774 188.302C320.447 188.267 320.207 187.946 320.24 187.585L322.45 162.938C322.483 162.579 322.789 162.319 323.101 162.351C323.429 162.386 323.668 162.707 323.636 163.068L321.425 187.715C321.394 188.052 321.136 188.305 320.834 188.305Z" fill="#FDFDFD"/>
<path d="M326.381 166.906C325.508 166.906 324.798 166.124 324.798 165.164C324.798 164.203 325.508 163.421 326.381 163.421C327.254 163.421 327.964 164.203 327.964 165.164C327.964 166.124 327.255 166.906 326.381 166.906ZM326.381 164.73C326.164 164.73 325.988 164.924 325.988 165.162C325.988 165.401 326.164 165.595 326.381 165.595C326.598 165.595 326.774 165.401 326.774 165.162C326.774 164.924 326.598 164.73 326.381 164.73Z" fill="#FDFDFD"/>
<path d="M257.782 223.569C257.774 223.569 257.766 223.569 257.758 223.568C257.43 223.553 257.174 223.248 257.187 222.886L258.122 197.017C258.135 196.655 258.42 196.372 258.741 196.388C259.07 196.402 259.326 196.707 259.313 197.069L258.377 222.94C258.364 223.292 258.101 223.569 257.782 223.569Z" fill="#FDFDFD"/>
<path d="M324.151 479.127L323.613 474.835L319.81 352.921C311.579 353.217 299.537 353.65 287.734 354.074L307.013 485.155L324.737 488.707C328.41 489.444 333.037 486.167 335.018 482.684L324.151 479.127Z" fill="#FFA698"/>
<path d="M259.288 469.869L260.157 485.198L250.244 490.91C252.828 493.876 257.966 496.044 261.427 494.498L278.12 487.041L279.243 469.869L286.81 354.108C272.573 354.617 258.853 355.108 252.793 355.318L259.288 469.869Z" fill="#FFA698"/>
<path d="M322.582 352.821C326.729 352.672 329.908 349.005 329.576 344.758C328.1 325.861 324.439 279.053 324.321 278.006C323.397 269.759 320.676 261.816 316.334 254.844L313.124 249.693L310.06 244.774H262.101L259.035 249.693L258.184 251.061L255.827 254.845C249.873 264.404 246.971 275.787 247.559 287.275L243.697 348.299C243.462 352.013 246.087 355.218 249.543 355.427C249.578 355.429 250.756 355.389 252.792 355.318C258.852 355.107 272.573 354.617 286.809 354.108C287.117 354.097 287.426 354.085 287.734 354.075C299.537 353.652 311.579 353.218 319.81 352.922C320.79 352.885 321.718 352.853 322.582 352.821Z" fill="#F8E643"/>
<path d="M312.598 250.013H261.734C261.405 250.013 261.139 249.719 261.139 249.357C261.139 248.996 261.405 248.702 261.734 248.702H312.598C312.927 248.702 313.193 248.996 313.193 249.357C313.193 249.719 312.927 250.013 312.598 250.013Z" fill="#F95A4E"/>
<path d="M317.384 258.711H294.604C294.275 258.711 294.009 258.418 294.009 258.056C294.009 257.695 294.275 257.401 294.604 257.401H317.384C317.712 257.401 317.979 257.695 317.979 258.056C317.979 258.419 317.712 258.711 317.384 258.711Z" fill="#F95A4E"/>
<path d="M283.473 343.765C283.152 343.765 282.889 343.484 282.878 343.131C282.867 342.77 283.126 342.466 283.454 342.455L329.013 340.851C329.312 340.847 329.616 341.125 329.627 341.485C329.638 341.845 329.379 342.149 329.051 342.161L283.492 343.765C283.486 343.765 283.479 343.765 283.473 343.765Z" fill="#F95A4E"/>
<path d="M636.164 477.417L636.102 500.769L681.622 500.915C681.633 496.464 678.9 492.571 674.984 491.461L663.472 488.198C662.572 487.942 661.752 487.424 661.1 486.695L656.691 477.305L636.164 477.417Z" fill="#353148"/>
<path d="M656.891 489C656.719 489 656.557 488.892 656.483 488.709C656.382 488.46 656.483 488.17 656.708 488.06L660.724 486.082C660.947 485.969 661.213 486.079 661.313 486.33C661.414 486.577 661.313 486.868 661.088 486.978L657.073 488.956C657.013 488.985 656.951 489 656.891 489Z" fill="#EAEAEA"/>
<path d="M655.476 485.317C655.305 485.317 655.143 485.21 655.069 485.026C654.968 484.778 655.069 484.488 655.294 484.378L659.308 482.399C659.532 482.288 659.798 482.397 659.898 482.646C659.999 482.895 659.898 483.184 659.674 483.294L655.66 485.272C655.6 485.304 655.538 485.317 655.476 485.317Z" fill="#EAEAEA"/>
<path d="M681.629 499.829L636.109 499.683L636.101 502.554L681.622 502.699L681.629 499.829Z" fill="#141C34"/>
<path d="M610.939 477.417L611.001 500.769L565.482 500.915C565.47 496.464 568.203 492.571 572.12 491.461L583.631 488.198C584.531 487.942 585.351 487.424 586.004 486.695L590.413 477.305L610.939 477.417Z" fill="#353148"/>
<path d="M590.213 489C590.151 489 590.089 488.985 590.031 488.956L586.017 486.978C585.792 486.868 585.692 486.577 585.792 486.33C585.892 486.081 586.158 485.972 586.381 486.082L590.395 488.06C590.619 488.17 590.72 488.461 590.619 488.709C590.546 488.892 590.384 489 590.213 489Z" fill="#EAEAEA"/>
<path d="M591.627 485.317C591.565 485.317 591.504 485.303 591.445 485.274L587.431 483.296C587.206 483.185 587.106 482.895 587.206 482.647C587.306 482.398 587.572 482.291 587.795 482.401L591.809 484.379C592.033 484.489 592.134 484.78 592.033 485.027C591.961 485.21 591.798 485.317 591.627 485.317Z" fill="#EAEAEA"/>
<path d="M565.482 502.694L611.003 502.549L610.995 499.678L565.475 499.824L565.482 502.694Z" fill="#141C34"/>
<path d="M590.324 479.299C590.32 479.299 590.317 479.299 590.313 479.299C589.985 479.292 589.723 478.993 589.729 478.632L592.642 302.804C592.648 302.443 592.962 302.192 593.248 302.161C593.576 302.167 593.838 302.466 593.832 302.828L590.919 478.655C590.913 479.013 590.648 479.299 590.324 479.299Z" fill="#FDFDFD"/>
<path d="M599.755 479.91H599.751C599.422 479.908 599.158 479.612 599.16 479.25L599.715 400.493C599.717 400.134 599.984 399.843 600.31 399.843H600.315C600.644 399.846 600.908 400.142 600.905 400.503L600.351 479.261C600.348 479.62 600.082 479.91 599.755 479.91Z" fill="#FDFDFD"/>
<path d="M577.352 146.541L591.341 143.862C592.586 143.624 593.42 142.319 593.204 140.947L587.967 107.833C587.75 106.462 586.565 105.544 585.318 105.782L571.331 108.461C570.084 108.7 569.251 110.005 569.468 111.376L574.704 144.491C574.921 145.862 576.107 146.781 577.352 146.541Z" fill="white"/>
<path d="M593.155 135.023L593.149 134.517C593.131 132.864 591.899 131.54 590.396 131.559L587.181 131.601L589.586 131.57C590.961 131.551 592.063 130.311 592.046 128.798C592.026 126.924 590.666 125.398 588.963 125.357C587.025 125.311 584.436 125.442 582.02 126.185C577.348 127.621 576.272 126.479 576.272 126.479C576.272 126.479 575.303 126.38 573.888 120.667C572.472 114.954 565.472 116.043 567.385 119.686C569.298 123.329 567.863 126.943 567.863 126.943L566.988 129.264L566.702 130.022C565.982 131.935 565.798 134.025 566.148 136.03C565.404 141.317 564.612 150.124 564.612 150.124L582.387 151.703L582.319 148.991L584.788 148.959C586.615 148.936 588.078 147.288 588.056 145.278C588.05 144.693 587.613 144.224 587.081 144.23L586.171 144.242L588.55 144.212C590.226 144.189 591.57 142.676 591.55 140.832L591.545 140.448C591.531 139.088 590.517 137.998 589.281 138.014L586 138.056L590.517 137.997C591.99 137.976 593.171 136.645 593.155 135.023Z" fill="#FFA698"/>
<path d="M590.532 132.057H586.528C586.282 132.057 586.082 131.837 586.082 131.566C586.082 131.294 586.282 131.074 586.528 131.074H590.532C590.778 131.074 590.978 131.294 590.978 131.566C590.978 131.837 590.778 132.057 590.532 132.057Z" fill="#FF755F"/>
<path d="M590.167 138.554C590.161 138.554 590.155 138.554 590.149 138.552L586.148 138.379C585.901 138.369 585.71 138.141 585.719 137.87C585.728 137.599 585.938 137.368 586.183 137.398L590.184 137.571C590.431 137.581 590.623 137.809 590.613 138.081C590.603 138.347 590.405 138.554 590.167 138.554Z" fill="#FF755F"/>
<path d="M587.62 144.702C587.614 144.702 587.608 144.702 587.602 144.702L583.601 144.529C583.355 144.518 583.163 144.29 583.173 144.019C583.182 143.748 583.399 143.523 583.637 143.548L587.638 143.72C587.885 143.731 588.076 143.959 588.067 144.23C588.057 144.495 587.858 144.702 587.62 144.702Z" fill="#FF755F"/>
<path d="M650.506 283.041C650.506 283.041 646.302 286.317 645.685 290.594C645.069 294.872 647.959 301.683 647.959 301.683L650.506 283.041Z" fill="#FFA698"/>
<path opacity="0.57" d="M649.943 288.848L647.712 301.068C647.712 301.068 647.942 289.705 649.943 288.848Z" fill="#FF755F"/>
<path d="M640.556 308.202H637.736C637.537 308.202 637.355 307.699 637.175 307.176L637.177 350.159H640.558L640.556 308.202Z" fill="#323233"/>
<path d="M674.364 308.198L674.366 350.155H677.747L677.744 307.799C677.669 307.883 677.603 308.195 677.525 308.195L674.364 308.198Z" fill="#323233"/>
<path d="M692.799 496.483L625.446 497.18C621.701 497.219 618.637 493.908 618.601 489.788L617.468 357.776C617.432 353.654 620.44 350.282 624.185 350.243L691.539 349.546C695.284 349.507 698.348 352.817 698.384 356.937L699.517 488.95C699.551 493.071 696.544 496.445 692.799 496.483Z" fill="#F8E643"/>
<path opacity="0.49" d="M632.263 471.952C628.229 471.952 624.928 468.369 624.89 463.928L623.978 357.692L625.168 357.679L626.08 463.914C626.112 467.638 628.881 470.642 632.263 470.642C632.283 470.642 632.304 470.642 632.324 470.642L685.465 470.091C687.119 470.074 688.666 469.353 689.822 468.057C690.979 466.763 691.608 465.05 691.592 463.237L690.679 357L691.87 356.987L692.783 463.224C692.802 465.388 692.052 467.431 690.671 468.975C689.291 470.52 687.446 471.381 685.477 471.401L632.336 471.952C632.311 471.952 632.287 471.952 632.263 471.952Z" fill="#222222"/>
<path opacity="0.49" d="M690.466 497.873H626.516V494.502C626.516 491.321 628.867 488.735 631.756 488.735H685.225C688.115 488.735 690.465 491.322 690.465 494.502L690.466 497.873ZM627.706 496.563H689.276V494.502C689.276 492.044 687.459 490.045 685.226 490.045H631.757C629.524 490.045 627.708 492.044 627.708 494.502V496.563H627.706Z" fill="#222222"/>
<path d="M687.84 492.119C689.381 495.997 687.766 500.512 684.236 502.204C680.704 503.895 676.592 502.124 675.052 498.246C673.511 494.368 675.125 489.852 678.656 488.161C682.188 486.468 686.3 488.24 687.84 492.119Z" fill="#141C34"/>
<path opacity="0.27" d="M685.006 493.476C685.864 495.635 684.965 498.149 682.999 499.091C681.032 500.033 678.743 499.046 677.885 496.887C677.027 494.728 677.925 492.214 679.892 491.272C681.858 490.329 684.149 491.317 685.006 493.476Z" fill="#A2D5F2"/>
<path d="M643.358 492.119C644.899 495.997 643.286 500.512 639.754 502.204C636.222 503.895 632.11 502.124 630.57 498.246C629.029 494.368 630.643 489.852 634.174 488.161C637.706 486.468 641.818 488.24 643.358 492.119Z" fill="#141C34"/>
<path opacity="0.27" d="M640.525 493.476C641.383 495.635 640.484 498.149 638.518 499.091C636.551 500.033 634.262 499.046 633.404 496.887C632.545 494.728 633.444 492.214 635.411 491.272C637.377 490.329 639.667 491.317 640.525 493.476Z" fill="#A2D5F2"/>
<path opacity="0.49" d="M637.575 458.096H635.777C634.523 458.096 633.503 456.974 633.503 455.593V370.55C633.503 369.169 634.523 368.047 635.777 368.047H637.575C638.831 368.047 639.851 369.169 639.851 370.55V455.593C639.851 456.974 638.831 458.096 637.575 458.096ZM635.777 369.357C635.18 369.357 634.693 369.893 634.693 370.55V455.593C634.693 456.251 635.18 456.786 635.777 456.786H637.575C638.174 456.786 638.661 456.251 638.661 455.593V370.55C638.661 369.893 638.174 369.357 637.575 369.357H635.777Z" fill="#222222"/>
<path opacity="0.49" d="M678.459 458.096H676.661C675.407 458.096 674.386 456.974 674.386 455.593V370.55C674.386 369.169 675.408 368.047 676.661 368.047H678.459C679.715 368.047 680.735 369.169 680.735 370.55V455.593C680.735 456.974 679.715 458.096 678.459 458.096ZM676.661 369.357C676.064 369.357 675.577 369.893 675.577 370.55V455.593C675.577 456.251 676.064 456.786 676.661 456.786H678.459C679.058 456.786 679.544 456.251 679.544 455.593V370.55C679.544 369.893 679.058 369.357 678.459 369.357H676.661Z" fill="#222222"/>
<path opacity="0.49" d="M659.301 458.096H657.504C656.248 458.096 655.228 456.974 655.228 455.593V370.55C655.228 369.169 656.248 368.047 657.504 368.047H659.301C660.557 368.047 661.577 369.169 661.577 370.55V455.593C661.577 456.974 660.557 458.096 659.301 458.096ZM657.504 369.357C656.905 369.357 656.418 369.893 656.418 370.55V455.593C656.418 456.251 656.905 456.786 657.504 456.786H659.301C659.9 456.786 660.387 456.251 660.387 455.593V370.55C660.387 369.893 659.9 369.357 659.301 369.357H657.504Z" fill="#222222"/>
<path d="M640.557 309.011H641.008C642.031 309.011 642.861 308.101 642.861 306.977C642.861 305.846 643.703 304.921 644.733 304.921L670.532 304.92C671.554 304.92 672.384 305.83 672.384 306.954C672.384 308.085 673.227 309.01 674.257 309.01H674.365H677.527C677.604 309.01 677.671 308.972 677.746 308.961C678.661 308.837 679.379 308.014 679.379 306.975V301.945C679.381 301.932 679.384 301.919 679.386 301.905C679.758 299.487 678.016 297.32 675.939 297.32L639.305 297.323C637.228 297.323 635.487 299.491 635.858 301.908C635.861 301.921 635.862 301.934 635.866 301.947V306.956C635.866 307.869 636.424 308.62 637.176 308.887C637.356 308.951 637.539 309.013 637.737 309.013L640.557 309.011Z" fill="#141C34"/>
<path d="M656.303 308.436L655.862 308.456C654.424 308.519 653.211 307.287 653.154 305.705L653.031 302.317L653.123 304.85C653.175 306.299 652.15 307.52 650.835 307.579C649.204 307.651 647.81 306.294 647.691 304.503C647.555 302.465 647.541 299.732 648.067 297.151C649.084 292.161 650.578 280.868 650.578 280.868L652.902 272.696L673.859 277.116L668.004 298.941C668.075 300.865 666.714 302.487 664.965 302.564C664.456 302.587 664.026 302.15 664.006 301.59L663.971 300.629L664.063 303.136C664.127 304.903 662.877 306.391 661.272 306.462L660.938 306.476C659.755 306.529 658.757 305.515 658.71 304.212L658.583 300.755L658.756 305.513C658.813 307.064 657.714 308.373 656.303 308.436Z" fill="#FFA698"/>
<path opacity="0.57" d="M653.592 301.14C653.568 300.806 653.309 300.552 653.003 300.565C652.691 300.581 652.448 300.872 652.463 301.215L652.642 305.732C652.623 306.061 652.92 306.344 653.233 306.328C653.545 306.312 653.787 306.022 653.773 305.678L653.593 301.161C653.593 301.155 653.592 301.147 653.592 301.14Z" fill="#FF755F"/>
<path opacity="0.57" d="M659.42 305.405C659.42 305.401 659.42 305.398 659.419 305.395L658.932 299.71C658.903 299.367 658.626 299.116 658.316 299.148C658.004 299.179 657.811 299.492 657.805 299.826L658.292 305.512C658.322 305.855 658.598 306.105 658.909 306.074C659.217 306.043 659.444 305.744 659.42 305.405Z" fill="#FF755F"/>
<path opacity="0.57" d="M664.286 297.992C664.262 297.658 664.002 297.404 663.697 297.418C663.385 297.434 663.142 297.725 663.156 298.07L663.326 302.315C663.319 302.653 663.605 302.923 663.917 302.91C664.229 302.895 664.471 302.604 664.457 302.259L664.287 298.013C664.287 298.005 664.286 297.999 664.286 297.992Z" fill="#FF755F"/>
<path d="M629.956 80.5007C628.016 78.6771 625.373 77.3566 621.815 76.8338C621.68 76.5522 621.539 76.2758 621.385 76.0111C619.67 73.0556 616.784 71.1626 613.638 70.6084C603.821 68.8765 600.902 76.019 594.138 80.6448C581.265 89.4498 593.902 105.649 594.62 101.886C594.835 100.757 595.832 98.7054 596.654 97.8211C596.963 97.4883 597.296 97.1922 597.64 96.9132C598.989 97.7477 600.556 98.1918 602.217 98.0791C604.421 97.9298 606.361 96.8451 607.763 95.2062C615.74 95.6844 620.275 94.0821 622.811 92.3738C623.589 93.3 624.192 94.407 624.511 95.6333C625.139 98.0425 624.842 100.678 624.885 103.153C624.905 104.294 618.807 111.992 619.381 116.455C620.004 121.304 624.08 124.677 628.486 123.991C632.892 123.304 635.957 118.819 635.333 113.97C635.08 111.995 634.245 110.272 633.056 108.961L636.643 94.3677C638.458 88.3349 635.208 82.116 629.956 80.5007Z" fill="#423E49"/>
<path d="M629.807 107.585L628.956 107.571C628.956 107.571 626.417 107.681 625.877 110.492C625.796 110.91 624.925 106.977 624.916 106.576C624.89 105.435 624.905 104.293 624.885 103.152C624.842 100.677 625.137 98.0411 624.511 95.6319C623.821 92.9791 621.84 90.8397 619.503 90.0262C619.357 89.9751 619.177 89.9319 618.975 89.8952C618.044 92.4315 615.86 94.2917 613.215 94.4712C611.686 94.5747 610.249 94.0952 609.071 93.2149C607.752 95.9398 605.224 97.8761 602.217 98.0791C599.125 98.2887 596.33 96.6145 594.736 93.9616C594.394 95.2795 594.185 96.6603 594.165 98.0962L594.15 99.1337C594.15 99.135 594.15 99.1364 594.15 99.1364L593.906 116.027L593.789 124.079V124.08L593.773 125.149C593.67 132.348 597.661 138.556 603.375 141.123L603.187 149.861C603.038 156.771 608.007 162.505 614.285 162.669L617.297 162.748C623.577 162.912 628.787 157.443 628.936 150.533L629.568 121.245L629.611 121.246C632.638 121.299 635.131 118.642 635.179 115.31L635.202 113.712C635.249 110.382 632.835 107.637 629.807 107.585Z" fill="#FFA698"/>
<path opacity="0.46" d="M626.059 124.643C625.931 133.439 619.35 140.457 611.356 140.317L608.03 140.259C600.038 140.119 593.662 132.876 593.788 124.08L593.772 125.149C593.664 132.675 598.028 139.126 604.162 141.455C604.108 144.69 606.8 147.707 610.525 148.396C614.543 149.14 618.235 146.895 618.772 143.382C618.877 142.699 618.851 142.017 618.716 141.357C624.459 138.97 628.59 132.926 628.693 125.759L628.759 121.229L626.109 121.183L626.059 124.643Z" fill="#FF755F"/>
<path d="M630.952 117.131C630.866 117.131 630.778 117.11 630.696 117.069L628.092 115.706L629.965 111.509C630.11 111.184 630.468 111.051 630.762 111.209C631.058 111.368 631.179 111.76 631.035 112.085L629.692 115.092L631.206 115.884C631.503 116.04 631.63 116.431 631.487 116.758C631.387 116.994 631.173 117.131 630.952 117.131Z" fill="#FF755F"/>
<path d="M606.136 133.723C605.99 133.723 605.843 133.664 605.729 133.547C605.674 133.49 604.428 132.252 602.975 133.095C602.689 133.262 602.325 133.142 602.171 132.821C602.017 132.501 602.129 132.105 602.42 131.935C604.638 130.649 606.468 132.512 606.546 132.593C606.784 132.84 606.794 133.256 606.569 133.519C606.451 133.655 606.294 133.723 606.136 133.723Z" fill="#FF755F"/>
<mask id="mask4_7_1211" style="mask-type:luminance" maskUnits="userSpaceOnUse" x="595" y="108" width="9" height="6">
<path d="M595.351 111.847C595.514 110.497 596.174 108.494 598.615 108.076C599.018 108.008 599.391 108.012 599.744 108.063C601.375 108.299 602.48 109.669 603.14 110.842C603.628 111.709 603.178 112.863 602.267 113.058C599.778 113.59 597.293 113.387 596.08 113.227C595.621 113.167 595.281 112.723 595.314 112.216C595.323 112.101 595.336 111.976 595.351 111.847Z" fill="white"/>
</mask>
<g mask="url(#mask4_7_1211)">
<path d="M595.351 111.847C595.514 110.497 596.174 108.494 598.615 108.076C599.018 108.008 599.391 108.012 599.744 108.063C601.375 108.299 602.48 109.669 603.14 110.842C603.628 111.709 603.178 112.863 602.267 113.058C599.778 113.59 597.293 113.387 596.08 113.227C595.621 113.167 595.281 112.723 595.314 112.216C595.323 112.101 595.336 111.976 595.351 111.847Z" fill="white"/>
</g>
<mask id="mask5_7_1211" style="mask-type:luminance" maskUnits="userSpaceOnUse" x="595" y="108" width="9" height="6">
<path d="M595.351 111.847C595.514 110.497 596.174 108.494 598.615 108.076C599.018 108.008 599.391 108.012 599.744 108.063C601.375 108.299 602.48 109.669 603.14 110.842C603.628 111.709 603.178 112.863 602.267 113.058C599.778 113.59 597.293 113.387 596.08 113.227C595.621 113.167 595.281 112.723 595.314 112.216C595.323 112.101 595.336 111.976 595.351 111.847Z" fill="white"/>
</mask>
<g mask="url(#mask5_7_1211)">
<path d="M598.289 114.903C599.737 114.903 600.91 113.729 600.91 112.28C600.91 110.832 599.737 109.657 598.289 109.657C596.841 109.657 595.668 110.832 595.668 112.28C595.668 113.729 596.841 114.903 598.289 114.903Z" fill="#423E49"/>
</g>
<path d="M608.22 123.899C608.199 123.899 608.179 123.898 608.158 123.895C607.914 123.857 607.743 123.611 607.778 123.342C607.791 123.239 608.114 120.793 610.031 119.259C611.406 118.16 613.222 117.823 615.429 118.259C615.672 118.308 615.832 118.563 615.789 118.831C615.747 119.096 615.522 119.275 615.272 119.227C613.318 118.842 611.734 119.119 610.566 120.048C608.956 121.328 608.666 123.456 608.662 123.477C608.63 123.721 608.44 123.899 608.22 123.899Z" fill="#FF755F"/>
<mask id="mask6_7_1211" style="mask-type:luminance" maskUnits="userSpaceOnUse" x="607" y="105" width="11" height="8">
<path d="M607.867 110.62C608.067 108.971 608.872 106.522 611.856 106.013C612.348 105.929 612.805 105.934 613.236 105.997C615.229 106.285 616.581 107.961 617.387 109.393C617.983 110.453 617.433 111.864 616.32 112.102C613.277 112.752 610.241 112.503 608.759 112.309C608.198 112.236 607.783 111.692 607.823 111.074C607.833 110.932 607.848 110.779 607.867 110.62Z" fill="white"/>
</mask>
<g mask="url(#mask6_7_1211)">
<path d="M607.867 110.62C608.067 108.971 608.872 106.522 611.856 106.013C612.348 105.929 612.805 105.934 613.236 105.997C615.229 106.285 616.581 107.961 617.387 109.393C617.983 110.453 617.433 111.864 616.32 112.102C613.277 112.752 610.241 112.503 608.759 112.309C608.198 112.236 607.783 111.692 607.823 111.074C607.833 110.932 607.848 110.779 607.867 110.62Z" fill="white"/>
</g>
<mask id="mask7_7_1211" style="mask-type:luminance" maskUnits="userSpaceOnUse" x="607" y="105" width="11" height="8">
<path d="M607.867 110.62C608.067 108.971 608.872 106.522 611.856 106.013C612.348 105.929 612.805 105.934 613.236 105.997C615.229 106.285 616.581 107.961 617.387 109.393C617.983 110.453 617.433 111.864 616.32 112.102C613.277 112.752 610.241 112.503 608.759 112.309C608.198 112.236 607.783 111.692 607.823 111.074C607.833 110.932 607.848 110.779 607.867 110.62Z" fill="white"/>
</mask>
<g mask="url(#mask7_7_1211)">
<path d="M608.254 111.151C608.254 112.921 609.689 114.355 611.458 114.355C613.227 114.355 614.661 112.921 614.661 111.151C614.661 109.381 613.227 107.947 611.458 107.947C609.689 107.947 608.254 109.381 608.254 111.151Z" fill="#423E49"/>
</g>
<path d="M607.786 103.49C608.393 103.153 609.205 103.186 609.991 103.167C610.782 103.167 611.578 103.146 612.268 103.101C612.96 103.056 613.753 102.974 614.538 102.87C615.322 102.786 616.127 102.647 616.758 102.904C617.367 103.141 617.651 103.917 617 104.936C616.391 105.926 614.72 107.069 612.431 107.225C610.144 107.367 608.391 106.449 607.705 105.543C606.98 104.614 607.2 103.805 607.786 103.49Z" fill="#423E49"/>
<path d="M603.544 104.227C603.019 103.909 602.302 103.91 601.609 103.867C600.911 103.839 600.212 103.794 599.604 103.729C598.996 103.665 598.3 103.566 597.609 103.448C596.922 103.347 596.215 103.198 595.652 103.401C595.109 103.589 594.837 104.263 595.381 105.182C595.889 106.076 597.328 107.141 599.341 107.357C601.352 107.563 602.923 106.813 603.553 106.039C604.221 105.245 604.051 104.526 603.544 104.227Z" fill="#423E49"/>
<path d="M606.447 118.727L604.018 118.525C602.265 118.38 600.964 116.503 601.114 114.333L601.133 114.055C601.202 113.06 601.91 112.306 602.715 112.373C604.098 112.489 605.315 111.194 605.433 109.483L605.696 105.391" fill="#FFA698"/>
<path d="M606.447 119.218C606.436 119.218 606.424 119.218 606.413 119.217L603.985 119.015C601.989 118.849 600.501 116.732 600.668 114.296L600.689 114.017C600.733 113.377 601.001 112.777 601.423 112.377C601.801 112.02 602.279 111.847 602.748 111.883C603.276 111.924 603.817 111.706 604.239 111.26C604.672 110.797 604.939 110.154 604.987 109.447L605.25 105.355C605.268 105.085 605.485 104.89 605.727 104.899C605.973 104.919 606.158 105.153 606.141 105.423L605.878 109.517C605.812 110.467 605.452 111.337 604.858 111.966C604.252 112.61 603.485 112.931 602.68 112.863C602.441 112.842 602.202 112.935 602.005 113.121C601.76 113.353 601.604 113.707 601.579 114.092L601.559 114.371C601.429 116.265 602.547 117.91 604.053 118.034L606.481 118.236C606.727 118.257 606.911 118.493 606.893 118.762C606.874 119.022 606.678 119.218 606.447 119.218Z" fill="#FF755F"/>
<path d="M684.743 220.845L659.443 163.446L659.409 163.501C656.067 156.758 649.929 151.874 642.553 150.9L630.899 150.076L611.848 155.485L603.508 148.141L588.745 153.913L588.818 150.985C588.848 149.77 588.085 148.707 587.005 148.458L564.956 143.367C564.38 143.233 563.825 143.665 563.756 144.309C563.27 148.775 562.642 155.499 562.186 159.499C561.403 166.362 560.619 173.224 559.836 180.088C558.884 188.434 556.428 202.609 559.519 210.797C564.023 222.728 572.827 229 579.785 225.469C582.504 224.089 584.65 217.963 586.05 211.541L586.007 279.067L649.81 279.017L649.471 280.604C648.989 282.864 650.08 285.172 652.039 286.034L666.997 292.616C669.289 293.625 671.866 292.21 672.513 289.588L685.983 235.001C687.151 230.274 686.71 225.241 684.743 220.845Z" fill="#F8E643"/>
<path d="M626.729 154.918H601.349V279.233H626.729V154.918Z" fill="white"/>
<path d="M649.683 279.507C649.637 279.507 649.591 279.502 649.545 279.489C649.224 279.405 649.027 279.051 649.104 278.699L658.257 236.599L638.462 188.614C638.326 188.285 638.458 187.896 638.757 187.746C639.058 187.598 639.409 187.743 639.545 188.071L659.51 236.466L650.26 279.003C650.197 279.305 649.953 279.507 649.683 279.507Z" fill="#F95A4E"/>
<path d="M584.272 158.271C583.962 158.271 583.656 158.194 583.372 158.041C582.88 157.776 582.51 157.316 582.333 156.745C582.155 156.175 582.19 155.562 582.43 155.021C582.669 154.48 583.088 154.074 583.606 153.877C584.125 153.682 584.681 153.719 585.173 153.983C585.666 154.248 586.035 154.708 586.212 155.279C586.39 155.849 586.355 156.461 586.115 157.002C585.875 157.544 585.457 157.95 584.94 158.147C584.722 158.231 584.496 158.271 584.272 158.271ZM584.274 155.064C584.18 155.064 584.086 155.081 583.994 155.117C583.775 155.199 583.602 155.37 583.5 155.596C583.399 155.824 583.384 156.082 583.46 156.321C583.535 156.56 583.688 156.753 583.896 156.864C584.102 156.976 584.335 156.993 584.554 156.909C584.772 156.826 584.946 156.657 585.047 156.429C585.148 156.201 585.163 155.943 585.087 155.705C585.012 155.465 584.859 155.273 584.651 155.161C584.532 155.097 584.403 155.064 584.274 155.064Z" fill="#F95A4E"/>
<path d="M586.093 165.737C586.064 165.737 586.035 165.736 586.006 165.731L570.447 163.223C570.122 163.171 569.896 162.838 569.944 162.481C569.993 162.122 570.3 161.87 570.619 161.928L586.178 164.435C586.503 164.488 586.729 164.82 586.681 165.178C586.637 165.503 586.384 165.737 586.093 165.737Z" fill="#F95A4E"/>
<path d="M589.8 190.39C589.476 190.39 589.212 190.106 589.205 189.75L588.454 150.987C588.44 150.242 588.211 149.735 587.115 149.503L584.047 149.007C583.722 148.954 583.496 148.621 583.543 148.264C583.592 147.906 583.909 147.659 584.218 147.711L587.313 148.211C588.839 148.534 589.616 149.457 589.644 150.96L590.395 189.722C590.402 190.084 590.142 190.384 589.813 190.391C589.808 190.39 589.804 190.39 589.8 190.39Z" fill="#F95A4E"/>
<path d="M669.533 287.444C668.402 287.444 667.482 286.431 667.482 285.185C667.482 283.94 668.402 282.928 669.533 282.928C670.664 282.928 671.585 283.939 671.585 285.185C671.584 286.431 670.664 287.444 669.533 287.444ZM669.533 284.239C669.059 284.239 668.672 284.664 668.672 285.186C668.672 285.709 669.058 286.135 669.533 286.135C670.008 286.135 670.395 285.71 670.395 285.186C670.394 284.664 670.008 284.239 669.533 284.239Z" fill="#F95A4E"/>
<path d="M674.786 278.573C674.725 278.573 674.665 278.563 674.605 278.543L659.626 273.277C659.313 273.167 659.141 272.798 659.241 272.453C659.342 272.108 659.675 271.922 659.989 272.028L674.968 277.295C675.281 277.405 675.454 277.773 675.354 278.119C675.272 278.395 675.038 278.573 674.786 278.573Z" fill="#F95A4E"/>
<path d="M606.584 163.881L611.954 155.592L611.849 155.484L612.227 155.169L612.241 155.15L602.943 142.827C602.152 141.778 600.801 142.424 600.639 143.93L599.715 152.485L604.481 163.636C604.854 164.507 605.665 164.725 606.267 164.231C606.379 164.138 606.488 164.028 606.584 163.881Z" fill="#F8F8EE"/>
<path d="M611.849 155.485L611.954 155.594L619.915 163.772L620.783 164.664C621.629 165.534 623.093 165.495 623.859 164.582L633.461 153.125L629.346 142.662C629.105 142.05 628.287 141.85 627.773 142.277L612.229 155.172L611.849 155.485Z" fill="#F8F8EE"/>
<path d="M616.381 172.772C616.376 172.772 616.37 172.772 616.365 172.772L609.396 172.572C609.067 172.563 608.807 172.262 608.816 171.9C608.824 171.54 609.142 171.253 609.426 171.262L616.395 171.462C616.724 171.472 616.983 171.773 616.975 172.134C616.968 172.491 616.702 172.772 616.381 172.772Z" fill="#FDFDFD"/>
<path d="M763.496 585.233C764.727 587.633 763.958 590.486 761.777 591.605C759.596 592.724 756.83 591.686 755.599 589.286C754.367 586.886 755.137 584.033 757.317 582.914C759.498 581.795 762.264 582.833 763.496 585.233Z" fill="#F8E643"/>
<path d="M806.038 403.858C806.654 405.057 806.27 406.484 805.179 407.044C804.089 407.603 802.705 407.084 802.09 405.884C801.474 404.684 801.859 403.258 802.949 402.699C804.04 402.139 805.422 402.658 806.038 403.858Z" fill="#F8E643"/>
<path d="M713.815 553.43C714.431 554.63 714.046 556.057 712.956 556.616C711.866 557.175 710.483 556.656 709.867 555.456C709.251 554.256 709.636 552.83 710.726 552.271C711.816 551.711 713.199 552.23 713.815 553.43Z" fill="#555555"/>
<path d="M707.917 419.214C708.533 420.414 708.148 421.841 707.058 422.4C705.967 422.96 704.584 422.44 703.969 421.241C703.353 420.04 703.738 418.614 704.828 418.055C705.918 417.496 707.301 418.014 707.917 419.214Z" fill="#555555"/>
<path d="M801.392 566.129C801.7 566.729 801.508 567.442 800.962 567.722C800.417 568.002 799.726 567.742 799.418 567.142C799.11 566.542 799.302 565.829 799.847 565.549C800.393 565.269 801.084 565.529 801.392 566.129Z" fill="#555555"/>
<path d="M771.632 376.91C773.131 376.14 773.66 374.179 772.813 372.529C771.967 370.88 770.065 370.166 768.566 370.935C767.067 371.705 766.538 373.666 767.384 375.315C768.231 376.965 770.133 377.679 771.632 376.91Z" fill="#F8E643"/>
<path d="M123.894 571.552C125.125 573.952 124.356 576.805 122.175 577.924C119.994 579.043 117.228 578.005 115.997 575.605C114.765 573.205 115.535 570.353 117.715 569.233C119.896 568.114 122.662 569.153 123.894 571.552Z" fill="#F8E643"/>
<path d="M109.038 445.858C109.654 447.057 109.27 448.484 108.179 449.044C107.089 449.603 105.705 449.084 105.09 447.884C104.474 446.684 104.859 445.258 105.949 444.699C107.04 444.139 108.422 444.658 109.038 445.858Z" fill="#F8E643"/>
<path d="M74.2134 539.749C74.8288 540.949 74.4439 542.376 73.3541 542.935C72.2643 543.494 70.8805 542.975 70.265 541.775C69.649 540.575 70.0345 539.149 71.1243 538.59C72.2141 538.031 73.5973 538.549 74.2134 539.749Z" fill="#555555"/>
<path d="M10.9171 461.214C11.5326 462.414 11.1477 463.841 10.0579 464.4C8.96698 464.96 7.58426 464.44 6.96878 463.241C6.35271 462.04 6.73822 460.614 7.82803 460.055C8.91785 459.496 10.301 460.014 10.9171 461.214Z" fill="#555555"/>
<path d="M161.79 552.448C162.098 553.048 161.906 553.761 161.36 554.041C160.815 554.321 160.124 554.062 159.816 553.461C159.508 552.861 159.7 552.148 160.245 551.868C160.791 551.589 161.482 551.848 161.79 552.448Z" fill="#555555"/>
<path d="M74.6318 418.91C76.1309 418.14 76.6599 416.179 75.8133 414.529C74.9666 412.88 73.0649 412.166 71.5658 412.935C70.0666 413.704 69.5376 415.666 70.3843 417.315C71.231 418.965 73.1326 419.679 74.6318 418.91Z" fill="#F8E643"/>
<path d="M522.753 603.884C524.52 605.922 527.453 606.274 529.306 604.669C531.158 603.063 531.228 600.11 529.461 598.071C527.695 596.033 524.762 595.681 522.909 597.286C521.057 598.892 520.987 601.845 522.753 603.884Z" fill="#F8E643"/>
<path d="M336.661 571.253C337.544 572.273 339.011 572.448 339.937 571.646C340.863 570.843 340.898 569.367 340.015 568.347C339.131 567.327 337.665 567.152 336.738 567.954C335.812 568.757 335.778 570.234 336.661 571.253Z" fill="#F8E643"/>
<path d="M481.045 552.635C481.928 553.654 483.396 553.83 484.321 553.027C485.247 552.225 485.282 550.748 484.399 549.729C483.516 548.709 482.049 548.534 481.123 549.336C480.197 550.138 480.162 551.616 481.045 552.635Z" fill="#555555"/>
<path d="M438.592 515.649C439.474 516.667 440.941 516.844 441.868 516.041C442.794 515.238 442.828 513.761 441.946 512.742C441.062 511.723 439.595 511.548 438.669 512.35C437.743 513.153 437.709 514.63 438.592 515.649Z" fill="#555555"/>
<path d="M481.855 641.223C482.297 641.733 483.03 641.82 483.494 641.419C483.957 641.018 483.974 640.28 483.532 639.77C483.091 639.26 482.358 639.172 481.894 639.573C481.431 639.975 481.414 640.713 481.855 641.223Z" fill="#555555"/>
<path d="M287.854 559.824C289.127 558.721 289.175 556.69 287.961 555.289C286.746 553.887 284.729 553.645 283.456 554.749C282.182 555.852 282.135 557.883 283.349 559.284C284.563 560.686 286.58 560.928 287.854 559.824Z" fill="#F8E643"/>
</svg>
